<?xml version="1.0" encoding="UTF-8"?>
<svg xmlns="http://www.w3.org/2000/svg" xmlns:xlink="http://www.w3.org/1999/xlink" width="810pt" height="809.999993pt" viewBox="0 0 810 809.999993" version="1.2">
<defs>
<filter id="alpha" filterUnits="objectBoundingBox" x="0%" y="0%" width="100%" height="100%">
  <feColorMatrix type="matrix" in="SourceGraphic" values="0 0 0 0 1 0 0 0 0 1 0 0 0 0 1 0 0 0 1 0"/>
</filter>
<mask id="mask0">
  <g filter="url(#alpha)">
<rect x="0" y="0" width="810" height="809.999993" style="fill:rgb(0%,0%,0%);fill-opacity:0.2667;stroke:none;"/>
  </g>
</mask>
<clipPath id="clip2">
  <path d="M 0.359375 3.539062 L 356 3.539062 L 356 417 L 0.359375 417 Z M 0.359375 3.539062 "/>
</clipPath>
<clipPath id="clip3">
  <path d="M 343 146 L 621 146 L 621 439.601562 L 343 439.601562 Z M 343 146 "/>
</clipPath>
<clipPath id="clip1">
  <rect x="0" y="0" width="621" height="440"/>
</clipPath>
<g id="surface5" clip-path="url(#clip1)">
<g clip-path="url(#clip2)" clip-rule="nonzero">
<path style=" stroke:none;fill-rule:nonzero;fill:rgb(51.368713%,64.709473%,59.609985%);fill-opacity:1;" d="M 354.085938 300.472656 C 353.988281 299.929688 353.683594 299.53125 353.292969 299.277344 C 350.3125 286.015625 332.410156 278.855469 319.785156 279.371094 C 320.175781 272.242188 320.398438 265.0625 319.394531 258.082031 C 321.160156 244.265625 310.402344 234.253906 297.800781 229.71875 C 298.167969 222.800781 298.566406 215.464844 297.074219 208.703125 C 306.878906 202.503906 315.832031 194.230469 318.390625 184.136719 C 318.429688 183.992188 318.429688 183.851562 318.417969 183.714844 C 321.023438 174.417969 319.886719 163 320.316406 153.863281 C 320.730469 144.820312 322.90625 132.484375 320.640625 122.820312 C 320.632812 111.667969 310.144531 102.667969 298.320312 101.792969 C 298.304688 101.296875 298.300781 100.824219 298.304688 100.394531 C 298.488281 88.722656 299.421875 75.898438 297.546875 64.117188 C 297.878906 63.546875 298.042969 62.882812 297.867188 62.140625 C 291.429688 34.796875 257.289062 22.035156 232.691406 14.785156 C 204.683594 6.527344 174.710938 3.855469 145.585938 3.992188 C 114.601562 4.132812 82.332031 7.164062 53.257812 18.386719 C 34.695312 25.539062 16.4375 36.527344 9.125 55.21875 C 8.644531 54.34375 7.15625 54.207031 6.933594 55.367188 C 4.289062 69.226562 6.433594 84.835938 6.542969 98.921875 C 6.628906 109.761719 4.472656 124.09375 8.578125 134.304688 C 9.15625 135.738281 11.554688 135.863281 12.304688 134.554688 C 16.34375 139.621094 21.414062 143.625 27.046875 146.863281 C 25.699219 151.132812 26.878906 157.285156 26.839844 161.011719 C 26.820312 162.128906 26.78125 163.277344 26.738281 164.433594 C 10.171875 168.578125 2.128906 182.773438 2.183594 196.933594 C 1.921875 197.152344 1.722656 197.453125 1.636719 197.808594 C 0.121094 204.546875 0.511719 211.46875 0.601562 218.351562 C 0.742188 228.9375 0.242188 239.679688 2.578125 250.082031 C 2.625 250.304688 2.730469 250.46875 2.867188 250.609375 C 2 250.898438 1.371094 251.976562 1.964844 252.925781 C 6.335938 259.9375 12.5 265.601562 19.484375 270.3125 C 17.363281 277.246094 18.132812 285.632812 17.664062 292.675781 C 17.386719 296.902344 15.636719 303.789062 16.097656 309.058594 C 15.21875 309.300781 14.464844 310.082031 14.652344 311.082031 C 17.214844 324.226562 29.59375 332.203125 42.246094 337.492188 C 42.15625 337.699219 42.050781 337.902344 42.027344 338.171875 C 40.796875 351.261719 40.15625 365.179688 43.015625 378.183594 C 42.003906 378.214844 41.140625 379.519531 41.800781 380.433594 C 56.792969 400.894531 85.980469 406.898438 109.808594 410.777344 C 138.574219 415.472656 168.410156 416.105469 197.503906 416.582031 C 227.96875 417.085938 258.777344 415.683594 288.566406 409.027344 C 310.074219 404.230469 342.644531 394.050781 350.070312 371.046875 C 350.273438 370.390625 349.921875 369.84375 349.402344 369.546875 C 352.78125 358.074219 353.089844 345.140625 354.171875 333.484375 C 355.175781 322.601562 356.003906 311.277344 354.085938 300.472656 Z M 316.546875 318.238281 C 316.601562 318.082031 316.625 317.910156 316.671875 317.746094 C 317.066406 317.15625 317.195312 316.53125 317.132812 315.957031 C 319.222656 307.269531 318.832031 297.980469 319.242188 289.101562 C 319.355469 286.765625 319.5 284.417969 319.640625 282.050781 C 333.546875 287.585938 354.648438 292.871094 345.578125 312.164062 C 340.113281 323.78125 329.683594 328.320312 319.089844 333.023438 C 308.21875 335.75 297.585938 340.132812 286.617188 342.566406 C 280.273438 343.972656 273.867188 345.054688 267.421875 345.949219 C 285.832031 340.992188 303.476562 333.128906 315.625 318.988281 C 316.023438 318.925781 316.40625 318.714844 316.546875 318.238281 Z M 297.546875 234.761719 C 314.886719 241.65625 321.15625 260.429688 304.96875 273.511719 C 292.941406 283.246094 275.328125 286.476562 260.488281 289.335938 C 250.503906 291.257812 240.242188 292.636719 230.019531 293.71875 C 234.863281 292.585938 239.652344 291.300781 244.390625 289.804688 C 249.113281 288.441406 253.675781 286.808594 258.015625 284.851562 C 259.03125 284.433594 260.058594 284.042969 261.074219 283.597656 C 272.40625 278.675781 287.386719 270.570312 293.269531 259.109375 C 293.453125 259.003906 293.613281 258.851562 293.707031 258.632812 C 296.800781 251.21875 297.179688 242.816406 297.546875 234.761719 Z M 314.535156 138.328125 C 314.667969 142.363281 314.886719 146.320312 314.785156 149.898438 C 314.46875 160.746094 311.199219 174.78125 313.609375 185.714844 C 309.15625 190.242188 305.332031 195.375 300.453125 199.597656 C 293.058594 206 283.972656 210.46875 275.003906 214.285156 C 265.132812 218.503906 254.65625 220.792969 244.300781 223.394531 C 244.167969 223.304688 244.003906 223.238281 243.777344 223.246094 C 224.476562 223.890625 205.300781 227.03125 185.964844 227.871094 C 163.136719 228.84375 140.320312 227.285156 117.699219 224.304688 C 87.953125 220.394531 52.390625 216.9375 32.929688 191.839844 C 32.609375 191.429688 32.1875 191.25 31.761719 191.210938 C 34.046875 182.515625 32.808594 172.464844 32.769531 163.648438 C 32.757812 160.378906 33.679688 154.695312 33.179688 150.015625 C 41.984375 154.023438 51.699219 156.597656 60.992188 158.566406 C 61.039062 158.699219 61.117188 158.835938 61.277344 158.953125 C 95.421875 181.253906 146.113281 180.121094 185.5 179.628906 C 207.183594 179.355469 228.789062 177.144531 249.875 172.121094 C 265.660156 168.355469 281.96875 163.425781 295.261719 154.054688 C 302.914062 150.609375 309.695312 145.074219 314.535156 138.328125 Z M 295.199219 125.933594 C 299.484375 122.25 298.851562 112.238281 298.46875 105.148438 C 309.320312 112.484375 318.9375 118.746094 310.109375 132.828125 C 303.679688 143.078125 292.097656 149.765625 281.714844 155.519531 C 281.464844 155.65625 281.304688 155.875 281.21875 156.121094 C 247.890625 169.320312 212.78125 173.351562 176.246094 173.449219 C 156.894531 173.5 137.5 172.539062 118.265625 170.464844 C 103.609375 168.878906 89.824219 165.144531 75.875 161.332031 C 98.75 165.085938 122.332031 166.730469 145.324219 167.59375 C 176.238281 168.75 207.429688 166.3125 237.164062 157.609375 C 257.84375 151.5625 281.398438 144.125 294.121094 126.222656 C 294.480469 126.296875 294.867188 126.222656 295.199219 125.933594 Z M 18.441406 47.445312 C 30 34.96875 47.003906 27.632812 63.164062 22.730469 C 90.484375 14.453125 120.097656 12.503906 148.535156 12.820312 C 174.507812 13.109375 200.777344 15.710938 225.96875 22.035156 C 236.652344 24.710938 246.4375 28.9375 256.382812 33.523438 C 263.402344 36.773438 270.347656 40.054688 276.597656 44.613281 C 281.34375 48.070312 284.574219 52.71875 287.601562 57.535156 C 287.207031 58.003906 286.894531 58.542969 286.816406 59.210938 C 285.023438 74.425781 279.105469 83.160156 265.488281 90.257812 C 254.820312 95.820312 243.3125 101.125 231.679688 104.40625 C 205.59375 111.753906 177.105469 111.988281 150.214844 111.058594 C 124.0625 110.152344 96.933594 107.425781 72.027344 99.132812 C 60.570312 95.320312 49.238281 90.617188 37.921875 86.390625 C 32.546875 84.378906 27.195312 82.035156 22.527344 78.710938 C 12.164062 71.335938 15.265625 58.390625 18.457031 48.007812 C 18.515625 47.800781 18.5 47.621094 18.441406 47.445312 Z M 13.261719 129.152344 C 14.390625 118.078125 12.183594 105.34375 12.035156 94.59375 C 11.964844 89.644531 12.136719 84.433594 12.136719 79.195312 C 18.4375 90.390625 35.242188 94.914062 46.34375 99.074219 C 77.011719 110.5625 105.90625 117.480469 138.859375 119.691406 C 170.859375 121.824219 205.925781 121.871094 236.835938 112.375 C 259.210938 105.503906 285.46875 95.273438 292.207031 73.441406 C 292.140625 81.390625 292.746094 89.460938 292.789062 97.210938 C 292.816406 102.875 290.535156 113.730469 291.683594 120.976562 C 278.617188 141.980469 249.890625 148.710938 226.953125 154.441406 C 197.867188 161.714844 167.121094 162.226562 137.332031 160.625 C 96.875 158.449219 45.246094 156.90625 13.261719 129.152344 Z M 26.597656 167.785156 C 26.210938 176.328125 25.722656 185.53125 28.339844 193.210938 C 28.601562 194 29.644531 194.40625 30.40625 194.136719 C 40.363281 220.472656 80.207031 224.757812 104.214844 228.65625 C 126.441406 232.269531 148.683594 233.625 171.199219 233.21875 C 187.867188 232.925781 206.167969 232.660156 223.410156 229.914062 C 222.609375 230.289062 222.875 231.648438 223.796875 231.632812 C 227.609375 231.519531 231.460938 231.125 235.3125 230.574219 C 223.742188 233.582031 212.285156 237.011719 200.46875 239.222656 C 179.40625 243.167969 158.011719 244.066406 136.628906 243.289062 C 117.492188 242.597656 98.394531 239.496094 79.523438 236.472656 C 70.359375 235.003906 61.246094 233.425781 52.167969 231.492188 C 44.574219 229.875 36.859375 227.253906 29.09375 226.386719 C 20.324219 219.261719 12.0625 213.363281 7.933594 202.136719 C 2 186.019531 14.226562 175.328125 26.597656 167.785156 Z M 4.300781 250.933594 C 4.71875 250.792969 5.078125 250.488281 5.179688 250.003906 C 6.664062 243.246094 6.980469 236.34375 6.960938 229.4375 C 6.945312 224.679688 7.109375 219.777344 7.023438 214.878906 C 11.515625 222.472656 19.082031 228.324219 29.671875 229.96875 C 43.917969 237.5625 63.304688 239.675781 78.546875 242.347656 C 99.222656 245.972656 120.472656 247.460938 141.4375 248.132812 C 161.550781 248.792969 181.640625 247.097656 201.417969 243.570312 C 217.667969 240.664062 235.074219 237.191406 249.640625 229.253906 C 250.308594 228.886719 250.308594 228.117188 249.917969 227.664062 C 260.511719 224.964844 270.914062 221.210938 280.574219 217.191406 C 284.214844 215.675781 288.242188 213.78125 292.273438 211.546875 C 291.042969 218.980469 291.449219 226.90625 291.179688 234.34375 C 290.894531 242.074219 289.828125 250.085938 291.191406 257.746094 C 286.523438 260.941406 282.503906 265.03125 278.019531 268.511719 C 271.359375 273.667969 263.753906 277.578125 256.113281 281.117188 C 213.175781 293.449219 166.703125 296.082031 122.292969 293.394531 C 80.089844 290.839844 35.6875 280.097656 4.300781 250.933594 Z M 20.078125 312.664062 C 23.011719 308.953125 22.320312 300.988281 22.652344 297.035156 C 23.257812 289.851562 24.660156 280.0625 22.757812 272.414062 C 31.773438 277.933594 41.878906 282.050781 51.292969 285.453125 C 70.914062 292.558594 91.945312 296.429688 112.707031 298.371094 C 123.253906 299.355469 133.863281 299.753906 144.480469 299.769531 C 173.808594 303.515625 205.625 301.871094 234.566406 297.566406 C 251.019531 295.117188 267.800781 292.910156 283.707031 287.9375 C 294.441406 284.585938 306.789062 280.011719 313.878906 271.085938 C 313.71875 275.160156 313.652344 279.242188 313.4375 283.292969 C 312.945312 293.089844 311.65625 303.582031 313.289062 313.390625 C 312.835938 313.535156 312.398438 313.808594 312.019531 314.28125 C 292.714844 337.707031 256.644531 343.558594 227.929688 347.582031 C 195.671875 352.09375 162.699219 350.898438 130.339844 348.289062 C 94.355469 345.40625 43.300781 344.023438 20.078125 312.664062 Z M 349.046875 328.453125 C 348.132812 342.386719 344.425781 357.648438 345.671875 371.921875 C 337.566406 381.496094 330.472656 388.101562 318.054688 392.757812 C 306.695312 397.027344 295.085938 400.378906 283.234375 402.992188 C 254.066406 409.445312 223.539062 409.921875 193.78125 409.476562 C 143.25 408.738281 90.65625 407.714844 46.964844 380.441406 C 48.402344 366.992188 47.09375 353.113281 47.679688 339.609375 C 50.933594 340.789062 54.121094 341.820312 57.054688 342.726562 C 80.339844 349.914062 105.144531 351.890625 129.3125 354.046875 C 139.367188 354.945312 149.46875 355.582031 159.585938 355.96875 C 159.074219 356.261719 159.289062 357.128906 159.890625 357.1875 C 173.972656 358.382812 188.261719 356.652344 202.347656 356.035156 C 218.234375 355.332031 234.113281 354.417969 249.945312 352.984375 C 272.25 350.960938 300.476562 348.664062 320.972656 337.523438 C 332.335938 333.558594 343.578125 326.898438 349.5 317.207031 C 349.398438 320.960938 349.292969 324.707031 349.046875 328.453125 Z M 349.046875 328.453125 "/>
</g>
<path style=" stroke:none;fill-rule:nonzero;fill:rgb(51.368713%,64.709473%,59.609985%);fill-opacity:1;" d="M 254.945312 57.632812 C 251.5 45.296875 229.71875 37.6875 218.972656 33.5 C 208.097656 29.269531 184.175781 19.199219 173.175781 26.113281 C 172.96875 26.238281 172.988281 26.511719 173.15625 26.671875 C 176.328125 29.765625 180.324219 30.109375 184.570312 31.28125 C 192.808594 33.542969 201.007812 35.632812 209.117188 38.359375 C 218.164062 41.378906 226.753906 45.53125 235.023438 50.203125 C 240.09375 53.070312 244.148438 57.71875 249.378906 60.027344 C 244.675781 66.550781 241.640625 74.09375 234.683594 78.714844 C 228.578125 82.792969 219.917969 83.957031 212.933594 85.769531 C 201.054688 88.855469 190.359375 91.109375 178.023438 91.824219 C 145.058594 93.734375 110.441406 91.75 78.457031 83.441406 C 67.378906 80.566406 51.914062 76.171875 46.515625 65.085938 C 39.527344 50.75 64.210938 41.34375 73.4375 38.214844 C 102.046875 28.523438 131.902344 28.847656 161.527344 25.628906 C 162.980469 25.460938 163.425781 23.117188 161.773438 22.941406 C 147.015625 21.410156 131.542969 23.222656 116.847656 24.675781 C 97.164062 26.625 76.609375 29.683594 58.617188 38.164062 C 48.355469 43 38.566406 51.300781 39.203125 63.394531 C 39.839844 75.496094 54.085938 82.375 63.769531 86.351562 C 97.957031 100.402344 140.164062 101.535156 176.660156 100.347656 C 191.675781 99.855469 204.5625 96.730469 218.980469 92.988281 C 236.863281 88.34375 253.679688 80.652344 254.488281 59.902344 C 254.953125 59.269531 255.171875 58.445312 254.945312 57.632812 Z M 254.945312 57.632812 "/>
<g clip-path="url(#clip3)" clip-rule="nonzero">
<path style=" stroke:none;fill-rule:nonzero;fill:rgb(51.368713%,64.709473%,59.609985%);fill-opacity:1;" d="M 492.601562 147.726562 C 492.25 147.726562 491.964844 147.878906 491.761719 148.101562 C 491.679688 148.105469 491.597656 148.117188 491.511719 148.121094 C 491.492188 147.53125 490.90625 146.953125 490.289062 146.882812 C 479.859375 145.695312 467.582031 149.417969 457.339844 151.371094 C 449.546875 152.855469 441.820312 154.871094 434.105469 156.71875 C 430.964844 157.46875 427.648438 157.535156 425.6875 159 C 425.300781 159.09375 424.917969 159.195312 424.53125 159.304688 C 424.496094 159.28125 424.464844 159.257812 424.429688 159.238281 C 423.953125 158.925781 423.550781 159.210938 423.421875 159.589844 C 398.671875 166.851562 377.558594 186.632812 363.980469 207.542969 C 346.828125 233.949219 343.046875 262.828125 343.886719 293.621094 C 344.722656 324.230469 353.109375 354.796875 370.46875 380.34375 C 389.355469 408.136719 421.425781 428.746094 453.378906 438.886719 C 455.398438 439.519531 457.011719 438.359375 457.609375 436.867188 C 476.761719 437.429688 500.289062 441.789062 517.941406 434.25 C 533.59375 432.914062 548.902344 427.964844 562.730469 419.265625 C 563.148438 419.878906 564.105469 420.203125 564.828125 419.796875 C 587.726562 406.707031 605.359375 376.984375 613.035156 352.777344 C 624.070312 317.960938 621.238281 283.417969 610.941406 248.816406 C 595.65625 197.453125 550.34375 147.382812 492.601562 147.726562 Z M 484.402344 433.90625 C 476.019531 433.902344 465.445312 431.066406 457.148438 433.738281 C 456.820312 433.371094 456.382812 433.0625 455.800781 432.851562 C 426.679688 422.257812 400.011719 406.476562 380.070312 382.636719 C 361.511719 360.460938 353.6875 332.316406 350.894531 304.261719 C 348.144531 276.523438 350.308594 248.292969 362.355469 222.859375 C 376.125 193.777344 398.933594 173.214844 428.8125 161.046875 C 428.984375 160.96875 429.117188 160.875 429.246094 160.765625 C 437.347656 160.390625 446.472656 156.644531 453.585938 154.9375 C 457.9375 153.898438 462.347656 153.089844 466.765625 152.421875 C 436.921875 161.085938 413.828125 181.695312 398.03125 210.234375 C 374.308594 253.0625 377.605469 308.824219 398.375 352.082031 C 398.589844 352.535156 398.910156 352.816406 399.257812 352.957031 C 401.957031 365.753906 413.445312 379.550781 420.648438 389.082031 C 431.601562 403.582031 445.269531 414.921875 461.574219 423.125 C 471.683594 428.21875 482.285156 431.621094 493.011719 433.332031 C 490.035156 433.660156 487.132812 433.90625 484.402344 433.90625 Z M 610.621094 339.195312 C 607.195312 356.535156 599.890625 372.367188 589.597656 386.746094 C 582.789062 396.269531 573.519531 403.976562 566.289062 413.074219 C 550.539062 419.402344 536.734375 427.042969 519.09375 428.425781 C 501.316406 429.816406 484.042969 425.8125 467.78125 418.953125 C 453.289062 412.832031 440.382812 403.3125 429.691406 391.988281 C 418.953125 380.617188 406.261719 363.636719 400.65625 348.265625 C 395.726562 327.042969 388.820312 306.839844 387.445312 284.835938 C 385.984375 261.304688 391.078125 237.824219 401.160156 216.542969 C 418.464844 180.015625 450.945312 154.199219 491.882812 150.007812 C 492 150.082031 492.144531 150.144531 492.316406 150.171875 C 517.859375 153.898438 540.375 161.757812 559.648438 179.128906 C 578.867188 196.453125 592.722656 219.214844 602.285156 242.863281 C 614.648438 273.449219 616.980469 307.007812 610.621094 339.195312 Z M 610.621094 339.195312 "/>
</g>
<path style=" stroke:none;fill-rule:nonzero;fill:rgb(51.368713%,64.709473%,59.609985%);fill-opacity:1;" d="M 563.699219 219.601562 C 550.71875 200.492188 527.433594 184.402344 503.300781 185.078125 C 501.078125 184.453125 498.8125 184.277344 496.460938 184.277344 C 495.074219 184.265625 493.429688 184.265625 491.941406 184.601562 C 491.644531 184.5 491.324219 184.460938 490.957031 184.554688 C 474.132812 189.175781 459.238281 195.746094 446.800781 208.066406 C 433.441406 221.316406 426.910156 240.460938 422.757812 258.226562 C 414.453125 293.800781 420.117188 336.078125 440.914062 366.648438 C 460.769531 395.824219 495.5 408.53125 529.582031 397.984375 C 565.863281 386.746094 582.398438 351.371094 584.648438 316.578125 C 585.9375 312.449219 586.714844 307.648438 586.144531 303.445312 C 591.808594 275.554688 579.148438 242.34375 563.699219 219.601562 Z M 582.433594 312.699219 C 574.453125 342.910156 567.3125 370.71875 537.316406 386.648438 C 503.605469 404.539062 463.914062 390.96875 443.292969 361.179688 C 422.941406 331.796875 419.269531 292.863281 426.042969 258.765625 C 429.523438 241.214844 437.574219 223.667969 449.730469 210.328125 C 460.589844 198.410156 476.605469 192.234375 491.777344 187.640625 C 493.671875 187.445312 495.53125 187.179688 497.5 187.242188 C 497.738281 187.25 497.964844 187.25 498.195312 187.257812 C 498.332031 187.566406 498.601562 187.808594 499.070312 187.871094 C 511.675781 189.558594 522.800781 191.730469 533.667969 198.496094 C 545.355469 205.769531 554.667969 217.265625 561.820312 228.710938 C 568.292969 239.070312 572.652344 250.585938 575.980469 262.246094 C 580 276.402344 579.121094 291.433594 582.835938 305.527344 C 582.519531 307.851562 582.394531 310.296875 582.433594 312.699219 Z M 582.433594 312.699219 "/>
<path style=" stroke:none;fill-rule:nonzero;fill:rgb(51.368713%,64.709473%,59.609985%);fill-opacity:1;" d="M 534.859375 293.734375 C 530.828125 284.296875 524.363281 279.171875 514.808594 275.476562 C 508.957031 273.210938 502.761719 272.515625 496.992188 269.964844 C 497.25 265.574219 497.503906 261.199219 497.761719 256.8125 C 501.703125 255.300781 505.785156 254.722656 510.003906 255.074219 C 514.371094 255.191406 518.078125 256.988281 521.765625 258.976562 C 523.121094 259.710938 524.476562 257.980469 523.683594 256.863281 C 524.085938 252.738281 523.59375 248.488281 523.59375 244.351562 C 523.582031 239.703125 524.109375 234.601562 522.304688 230.234375 C 521.964844 229.410156 520.734375 229.640625 520.484375 230.394531 C 520.472656 230.417969 520.46875 230.449219 520.460938 230.476562 C 517.871094 229.289062 514.121094 229.460938 511.558594 229.308594 C 508.195312 229.121094 504.378906 228.773438 501.050781 229.667969 C 501.582031 227.46875 500.714844 224.5 500.328125 222.601562 C 499.785156 219.933594 499.066406 216.230469 496.308594 214.96875 C 496.175781 214.910156 496.035156 214.910156 495.898438 214.929688 C 495.828125 214.789062 495.714844 214.652344 495.570312 214.542969 C 493.671875 213.085938 489.964844 214.113281 487.867188 214.46875 C 485.242188 214.925781 479.679688 215.558594 478.648438 218.382812 C 478.441406 218.949219 478.890625 219.734375 479.496094 219.824219 C 479.542969 219.828125 479.59375 219.824219 479.640625 219.828125 C 479.316406 222.097656 479.601562 224.429688 479.8125 226.722656 C 480.015625 228.871094 479.984375 231.511719 480.609375 233.738281 C 466.054688 234.601562 460.421875 261.199219 461.140625 271.988281 C 461.71875 280.609375 467.859375 291.839844 474.800781 297.125 C 484.605469 304.585938 504.21875 302.847656 508.425781 315.066406 C 507.875 316.09375 507.261719 317.097656 506.445312 318.042969 C 504.148438 320.679688 499.175781 320.472656 496.019531 320.566406 C 492.359375 320.6875 488.699219 320.4375 485.105469 319.78125 C 482.371094 319.273438 480.066406 317.789062 477.402344 317.1875 C 477.316406 317.164062 477.230469 317.1875 477.136719 317.1875 C 476.390625 316.539062 475.0625 316.53125 474.652344 317.613281 C 473.121094 321.6875 473.882812 326.53125 473.996094 330.777344 C 474.109375 334.613281 475.125 339.363281 474.234375 343.316406 C 473.832031 343.5 473.484375 343.835938 473.308594 344.230469 C 473.078125 344.753906 473.070312 345.335938 473.40625 345.820312 C 473.425781 345.84375 473.453125 345.859375 473.472656 345.886719 C 473.472656 346.757812 474.335938 347.488281 475.144531 347.203125 C 477.824219 348.667969 482.332031 349.410156 484.496094 350.136719 C 487.546875 351.167969 491 351.011719 494.179688 351.011719 C 496.222656 351.019531 498.480469 351.285156 500.585938 351.074219 C 500.605469 352.917969 501.042969 354.816406 501.476562 356.523438 C 502.03125 358.726562 502.285156 361.546875 503.527344 363.566406 C 503.234375 364.203125 503.789062 365 504.480469 365 C 507.8125 365.019531 511.355469 364.203125 514.683594 363.851562 C 516.351562 363.679688 520.757812 362.960938 520.382812 360.507812 C 520.355469 360.320312 520.238281 360.1875 520.128906 360.046875 C 520.140625 360.046875 520.144531 360.046875 520.152344 360.039062 C 520.757812 359.84375 521.304688 359.101562 521.320312 358.472656 C 521.390625 355.464844 520.535156 352.578125 519.671875 349.726562 C 519.300781 348.488281 518.734375 347.0625 517.933594 345.945312 C 518.023438 345.910156 518.117188 345.898438 518.210938 345.859375 C 537.28125 338.210938 542.289062 311.128906 534.859375 293.734375 Z M 513.074219 360.03125 C 510.820312 360.332031 508.226562 360.507812 506.101562 361.484375 C 506.023438 359.683594 505.371094 357.824219 505.003906 356.125 C 504.582031 354.226562 504.316406 352.148438 503.839844 350.171875 C 504.007812 350.082031 504.191406 350.003906 504.355469 349.90625 C 504.929688 349.535156 505.1875 348.714844 504.636719 348.195312 C 500.191406 343.964844 491.550781 347.527344 485.875 345.808594 C 483.273438 345.007812 480.28125 343.773438 477.394531 343.332031 C 478.082031 340.609375 477.976562 337.390625 478.054688 335.023438 C 478.195312 330.707031 478.070312 326.316406 477.847656 321.960938 C 482.5 326.105469 494.210938 325.617188 498.78125 325.464844 C 505.210938 325.246094 513.355469 321.476562 512.132812 314.707031 C 514.148438 299.839844 490.007812 300.304688 480.367188 295.070312 C 468.28125 288.519531 464.417969 272.28125 466.84375 260.09375 C 468.859375 249.925781 474.050781 242.445312 481.617188 235.910156 C 481.988281 236.222656 482.589844 236.308594 482.863281 235.808594 C 484.234375 233.355469 483.628906 230.316406 483.359375 227.617188 C 483.09375 224.976562 482.78125 222.132812 482.058594 219.507812 C 483.707031 219.015625 485.453125 218.128906 486.863281 217.769531 C 488.539062 217.351562 490.253906 217.085938 491.972656 216.902344 C 493.046875 216.78125 494.324219 216.804688 495.304688 216.300781 C 495.355469 218.535156 496.320312 220.859375 496.761719 223.019531 C 497.273438 225.535156 497.0625 229.652344 499.320312 231.300781 C 499.671875 231.570312 500.148438 231.441406 500.402344 231.121094 C 500.472656 231.039062 500.492188 230.9375 500.554688 230.859375 C 503.410156 231.742188 506.542969 231.621094 509.515625 231.847656 C 513.222656 232.128906 516.265625 232.964844 519.664062 234.199219 C 519.269531 237.441406 519.476562 240.816406 519.511719 243.996094 C 519.554688 247.507812 519.503906 251.207031 520.265625 254.675781 C 507.742188 249.015625 479.296875 251.636719 486.988281 268.625 C 490.894531 277.246094 505.886719 278.179688 513.511719 280.308594 C 538.90625 287.421875 541.355469 331.429688 516.515625 340.695312 C 514.183594 341.566406 514.347656 344.390625 515.777344 345.554688 C 515.675781 345.691406 515.574219 345.828125 515.453125 345.898438 C 514.683594 346.371094 515.660156 349.128906 515.777344 349.773438 C 516.320312 352.714844 516.953125 355.613281 517.433594 358.5625 C 517.480469 358.835938 517.601562 359.109375 517.765625 359.359375 C 515.96875 359.402344 513.792969 359.941406 513.074219 360.03125 Z M 513.074219 360.03125 "/>
<path style=" stroke:none;fill-rule:nonzero;fill:rgb(51.368713%,64.709473%,59.609985%);fill-opacity:1;" d="M 28.589844 91.492188 C 28.542969 90.179688 26.554688 90.089844 26.496094 91.441406 C 25.835938 106.867188 23.136719 125.402344 27.210938 140.472656 C 27.449219 141.363281 28.664062 141.296875 28.8125 140.394531 C 31.410156 124.839844 29.210938 107.238281 28.589844 91.492188 Z M 28.589844 91.492188 "/>
<path style=" stroke:none;fill-rule:nonzero;fill:rgb(51.368713%,64.709473%,59.609985%);fill-opacity:1;" d="M 36.617188 94.039062 C 36.480469 93.164062 34.972656 93.207031 35.011719 94.125 C 35.769531 111.226562 33.09375 130 36.574219 146.753906 C 36.722656 147.46875 37.671875 147.417969 37.824219 146.738281 C 41.355469 130.210938 39.074219 110.621094 36.617188 94.039062 Z M 36.617188 94.039062 "/>
<path style=" stroke:none;fill-rule:nonzero;fill:rgb(51.368713%,64.709473%,59.609985%);fill-opacity:1;" d="M 47.554688 98.140625 C 47.4375 97.34375 46.171875 97.375 46.132812 98.183594 C 45.296875 113.992188 42.90625 131.6875 45.996094 147.28125 C 46.152344 148.066406 47.488281 148.265625 47.671875 147.398438 C 50.933594 131.933594 49.878906 113.722656 47.554688 98.140625 Z M 47.554688 98.140625 "/>
<path style=" stroke:none;fill-rule:nonzero;fill:rgb(51.368713%,64.709473%,59.609985%);fill-opacity:1;" d="M 58.898438 100.097656 C 58.871094 98.808594 56.972656 98.742188 56.863281 100.027344 C 56.074219 109.425781 55.148438 118.804688 54.488281 128.226562 C 54 135.222656 52.574219 142.886719 55.054688 149.59375 C 55.222656 150.0625 55.933594 150.046875 56.101562 149.59375 C 58.628906 143.066406 57.855469 135.597656 58.1875 128.679688 C 58.652344 119.148438 59.058594 109.65625 58.898438 100.097656 Z M 58.898438 100.097656 "/>
<path style=" stroke:none;fill-rule:nonzero;fill:rgb(51.368713%,64.709473%,59.609985%);fill-opacity:1;" d="M 66.195312 102.566406 C 66.042969 101.449219 64.300781 101.667969 64.242188 102.738281 C 63.382812 118.921875 59.515625 136.089844 60.519531 152.191406 C 60.628906 153.941406 63.015625 153.933594 63.484375 152.398438 C 68.097656 137.242188 68.335938 118.140625 66.195312 102.566406 Z M 66.195312 102.566406 "/>
<path style=" stroke:none;fill-rule:nonzero;fill:rgb(51.368713%,64.709473%,59.609985%);fill-opacity:1;" d="M 74.230469 104.730469 C 74.03125 103.5625 72.023438 103.558594 71.859375 104.734375 C 70.597656 113.746094 70.449219 122.914062 69.554688 131.976562 C 68.796875 139.621094 67.695312 147.40625 68.832031 155.027344 C 68.996094 156.070312 70.503906 156.003906 70.804688 155.105469 C 75.765625 140.28125 76.847656 120.136719 74.230469 104.730469 Z M 74.230469 104.730469 "/>
<path style=" stroke:none;fill-rule:nonzero;fill:rgb(51.368713%,64.709473%,59.609985%);fill-opacity:1;" d="M 81.53125 105.203125 C 81.308594 103.925781 79.101562 104.1875 79.234375 105.488281 C 80.671875 120.488281 77.152344 135.503906 78.589844 150.332031 C 78.730469 151.828125 80.828125 152.078125 81.253906 150.59375 C 85.304688 136.382812 84.027344 119.597656 81.53125 105.203125 Z M 81.53125 105.203125 "/>
<path style=" stroke:none;fill-rule:nonzero;fill:rgb(51.368713%,64.709473%,59.609985%);fill-opacity:1;" d="M 93.230469 111.207031 C 93.140625 110.132812 91.585938 110.390625 91.449219 111.324219 C 89.472656 125.089844 89.578125 139.839844 90.980469 153.648438 C 91.085938 154.722656 92.71875 154.492188 92.816406 153.511719 C 94.191406 139.691406 94.378906 125.042969 93.230469 111.207031 Z M 93.230469 111.207031 "/>
<path style=" stroke:none;fill-rule:nonzero;fill:rgb(51.368713%,64.709473%,59.609985%);fill-opacity:1;" d="M 104.964844 117.253906 C 103.65625 128.925781 102.296875 140.785156 103.1875 152.53125 C 103.273438 153.675781 105.164062 154.15625 105.363281 152.851562 C 107.1875 141.121094 106.855469 129.101562 107.304688 117.261719 C 107.359375 115.753906 105.128906 115.804688 104.964844 117.253906 Z M 104.964844 117.253906 "/>
<path style=" stroke:none;fill-rule:nonzero;fill:rgb(51.368713%,64.709473%,59.609985%);fill-opacity:1;" d="M 119.792969 115.421875 C 118.851562 127.488281 117.109375 139.488281 116.449219 151.585938 C 116.40625 152.347656 117.589844 152.691406 117.839844 151.890625 C 121.535156 140.027344 121.851562 127.800781 121.890625 115.480469 C 121.890625 114.148438 119.894531 114.09375 119.792969 115.421875 Z M 119.792969 115.421875 "/>
<path style=" stroke:none;fill-rule:nonzero;fill:rgb(51.368713%,64.709473%,59.609985%);fill-opacity:1;" d="M 134.023438 121.324219 C 133.910156 119.777344 131.507812 119.769531 131.5625 121.339844 C 131.824219 128.554688 131.226562 135.804688 130.882812 143.007812 C 130.835938 144.085938 132.601562 144.441406 132.816406 143.332031 C 134.28125 135.980469 134.554688 128.824219 134.023438 121.324219 Z M 134.023438 121.324219 "/>
<path style=" stroke:none;fill-rule:nonzero;fill:rgb(51.368713%,64.709473%,59.609985%);fill-opacity:1;" d="M 217.203125 117.121094 C 217.128906 116.242188 215.738281 116.351562 215.664062 117.195312 C 214.753906 127.140625 213.878906 138.308594 215.582031 148.1875 C 215.761719 149.21875 217.144531 148.984375 217.304688 148.082031 C 219.046875 138.234375 218.09375 127.050781 217.203125 117.121094 Z M 217.203125 117.121094 "/>
<path style=" stroke:none;fill-rule:nonzero;fill:rgb(51.368713%,64.709473%,59.609985%);fill-opacity:1;" d="M 229.394531 114.46875 C 229.277344 112.59375 226.464844 112.761719 226.464844 114.625 C 226.433594 128.035156 224.554688 143.183594 228.023438 156.320312 C 228.277344 157.28125 229.5 157.132812 229.683594 156.234375 C 232.375 142.976562 230.25 127.894531 229.394531 114.46875 Z M 229.394531 114.46875 "/>
<path style=" stroke:none;fill-rule:nonzero;fill:rgb(51.368713%,64.709473%,59.609985%);fill-opacity:1;" d="M 242.230469 109.503906 C 242.125 107.667969 239.359375 107.816406 239.363281 109.636719 C 239.367188 122.972656 236.6875 137.699219 239.171875 150.855469 C 239.292969 151.527344 240.324219 151.6875 240.550781 150.992188 C 244.71875 138.25 242.996094 122.710938 242.230469 109.503906 Z M 242.230469 109.503906 "/>
<path style=" stroke:none;fill-rule:nonzero;fill:rgb(51.368713%,64.709473%,59.609985%);fill-opacity:1;" d="M 251.484375 107.210938 C 251.292969 105.320312 248.464844 105.488281 248.492188 107.386719 C 248.597656 114.714844 248.335938 122.050781 248 129.367188 C 247.71875 135.792969 246.792969 142.40625 248.707031 148.632812 C 248.945312 149.402344 250 149.570312 250.320312 148.75 C 255.039062 136.648438 252.773438 119.941406 251.484375 107.210938 Z M 251.484375 107.210938 "/>
<path style=" stroke:none;fill-rule:nonzero;fill:rgb(51.368713%,64.709473%,59.609985%);fill-opacity:1;" d="M 260.304688 102.203125 C 260.226562 100.152344 257.210938 100.480469 257.140625 102.445312 C 256.59375 116.394531 254.796875 131.351562 257.074219 145.175781 C 257.273438 146.394531 259.195312 146.300781 259.453125 145.160156 C 262.527344 131.390625 260.839844 116.1875 260.304688 102.203125 Z M 260.304688 102.203125 "/>
<path style=" stroke:none;fill-rule:nonzero;fill:rgb(51.368713%,64.709473%,59.609985%);fill-opacity:1;" d="M 268.421875 94.871094 C 268.285156 93.773438 266.460938 93.953125 266.460938 95.046875 C 266.542969 108.738281 264.625 122.605469 265.402344 136.253906 C 265.46875 137.507812 267.246094 137.8125 267.632812 136.566406 C 271.742188 123.25 270.019531 108.472656 268.421875 94.871094 Z M 268.421875 94.871094 "/>
<path style=" stroke:none;fill-rule:nonzero;fill:rgb(51.368713%,64.709473%,59.609985%);fill-opacity:1;" d="M 275.628906 92.21875 C 275.429688 91.335938 273.984375 91.339844 273.96875 92.3125 C 273.851562 104.519531 272.207031 118.324219 274.976562 130.257812 C 275.265625 131.523438 277.066406 131.371094 277.40625 130.234375 C 280.902344 118.414062 278.300781 104.023438 275.628906 92.21875 Z M 275.628906 92.21875 "/>
<path style=" stroke:none;fill-rule:nonzero;fill:rgb(51.368713%,64.709473%,59.609985%);fill-opacity:1;" d="M 44.945312 151.941406 C 44.792969 151.140625 43.46875 150.960938 43.265625 151.828125 C 39.617188 167.792969 38.1875 186.539062 39.421875 202.84375 C 39.46875 203.460938 40.398438 203.433594 40.488281 202.847656 C 43.015625 186.878906 48.015625 168.050781 44.945312 151.941406 Z M 44.945312 151.941406 "/>
<path style=" stroke:none;fill-rule:nonzero;fill:rgb(51.368713%,64.709473%,59.609985%);fill-opacity:1;" d="M 52.601562 153.898438 C 50.742188 171.460938 49.332031 189.144531 49.507812 206.816406 C 49.515625 208.144531 51.34375 208.132812 51.542969 206.882812 C 54.347656 189.390625 54.132812 171.582031 54.878906 153.921875 C 54.941406 152.453125 52.753906 152.476562 52.601562 153.898438 Z M 52.601562 153.898438 "/>
<path style=" stroke:none;fill-rule:nonzero;fill:rgb(51.368713%,64.709473%,59.609985%);fill-opacity:1;" d="M 62.753906 157.402344 C 62.683594 156.558594 61.335938 156.648438 61.265625 157.464844 C 59.804688 176.0625 57.570312 196.132812 60.445312 214.640625 C 60.566406 215.414062 61.605469 215.304688 61.75 214.613281 C 65.539062 196.359375 64.140625 175.886719 62.753906 157.402344 Z M 62.753906 157.402344 "/>
<path style=" stroke:none;fill-rule:nonzero;fill:rgb(51.368713%,64.709473%,59.609985%);fill-opacity:1;" d="M 72.980469 165.191406 C 72.945312 163.507812 70.402344 163.59375 70.347656 165.253906 C 69.816406 182.027344 67.214844 199.769531 69.691406 216.4375 C 69.796875 217.125 70.746094 217.058594 70.878906 216.417969 C 74.359375 199.953125 73.386719 181.949219 72.980469 165.191406 Z M 72.980469 165.191406 "/>
<path style=" stroke:none;fill-rule:nonzero;fill:rgb(51.368713%,64.709473%,59.609985%);fill-opacity:1;" d="M 80.011719 167.71875 C 79.828125 166.589844 77.976562 166.761719 78 167.894531 C 78.324219 185.175781 75.996094 202.925781 77.761719 220.113281 C 77.839844 220.878906 79.152344 221.011719 79.320312 220.230469 C 82.964844 203.453125 82.808594 184.636719 80.011719 167.71875 Z M 80.011719 167.71875 "/>
<path style=" stroke:none;fill-rule:nonzero;fill:rgb(51.368713%,64.709473%,59.609985%);fill-opacity:1;" d="M 88.917969 170.992188 C 88.730469 170.21875 87.59375 170.21875 87.492188 171.039062 C 85.585938 185.996094 84.964844 202.796875 86.152344 217.816406 C 86.207031 218.492188 87.273438 218.589844 87.472656 217.949219 C 91.917969 203.660156 92.398438 185.59375 88.917969 170.992188 Z M 88.917969 170.992188 "/>
<path style=" stroke:none;fill-rule:nonzero;fill:rgb(51.368713%,64.709473%,59.609985%);fill-opacity:1;" d="M 99.605469 171.855469 C 99.5 170.882812 98.058594 171.054688 97.949219 171.945312 C 96.039062 187.984375 93.851562 206.464844 96.980469 222.40625 C 97.136719 223.21875 98.527344 223.421875 98.710938 222.519531 C 102 206.714844 101.414062 187.890625 99.605469 171.855469 Z M 99.605469 171.855469 "/>
<path style=" stroke:none;fill-rule:nonzero;fill:rgb(51.368713%,64.709473%,59.609985%);fill-opacity:1;" d="M 113.53125 182.035156 C 113.488281 181.097656 112.105469 177.644531 112.234375 177.011719 C 112.273438 176.824219 111.949219 176.816406 111.992188 177.015625 C 112.15625 178.003906 110.554688 181.792969 110.453125 183.066406 C 110.148438 186.578125 110.078125 190.085938 109.960938 193.605469 C 109.746094 200.171875 109.90625 206.648438 110.542969 213.167969 C 110.675781 214.550781 112.621094 214.632812 112.757812 213.203125 C 113.429688 206.257812 113.773438 199.40625 113.746094 192.421875 C 113.730469 188.960938 113.710938 185.503906 113.53125 182.035156 Z M 113.53125 182.035156 "/>
<path style=" stroke:none;fill-rule:nonzero;fill:rgb(51.368713%,64.709473%,59.609985%);fill-opacity:1;" d="M 123.757812 179.726562 C 123.707031 178.367188 121.65625 178.292969 121.605469 179.671875 C 121.058594 193.195312 120.460938 206.671875 121.773438 220.160156 C 121.878906 221.234375 123.515625 221.003906 123.609375 220.023438 C 124.890625 206.59375 124.3125 193.175781 123.757812 179.726562 Z M 123.757812 179.726562 "/>
<path style=" stroke:none;fill-rule:nonzero;fill:rgb(51.368713%,64.709473%,59.609985%);fill-opacity:1;" d="M 135.578125 193.21875 C 135.574219 191.425781 132.78125 191.554688 132.761719 193.335938 C 132.675781 201.257812 130.992188 209.578125 131.910156 217.425781 C 132.015625 218.351562 133.371094 218.328125 133.644531 217.535156 C 136.203125 210.097656 135.597656 200.976562 135.578125 193.21875 Z M 135.578125 193.21875 "/>
<path style=" stroke:none;fill-rule:nonzero;fill:rgb(51.368713%,64.709473%,59.609985%);fill-opacity:1;" d="M 147.214844 193.164062 C 147.1875 191.164062 144.15625 191.4375 144.101562 193.386719 C 144 197.503906 143.773438 201.617188 143.492188 205.722656 C 143.261719 209.050781 142.648438 212.492188 143.613281 215.734375 C 143.867188 216.601562 145.304688 217.011719 145.75 216.035156 C 147.144531 212.9375 146.996094 209.554688 147.097656 206.199219 C 147.234375 201.859375 147.285156 197.515625 147.214844 193.164062 Z M 147.214844 193.164062 "/>
<path style=" stroke:none;fill-rule:nonzero;fill:rgb(51.368713%,64.709473%,59.609985%);fill-opacity:1;" d="M 203.699219 189.859375 C 203.527344 188.664062 201.507812 188.882812 201.574219 190.082031 C 202.023438 198.578125 200.265625 208.46875 202.9375 216.621094 C 203.121094 217.191406 204.035156 217.132812 204.210938 216.59375 C 206.878906 208.378906 204.882812 198.191406 203.699219 189.859375 Z M 203.699219 189.859375 "/>
<path style=" stroke:none;fill-rule:nonzero;fill:rgb(51.368713%,64.709473%,59.609985%);fill-opacity:1;" d="M 219.5 175.167969 C 219.496094 173.601562 217.144531 173.640625 217.050781 175.183594 C 216.042969 191.515625 213.542969 208.808594 216.191406 225.066406 C 216.324219 225.886719 217.480469 225.792969 217.613281 225.015625 C 220.433594 208.804688 219.554688 191.5625 219.5 175.167969 Z M 219.5 175.167969 "/>
<path style=" stroke:none;fill-rule:nonzero;fill:rgb(51.368713%,64.709473%,59.609985%);fill-opacity:1;" d="M 231.703125 172.046875 C 231.699219 170.753906 229.753906 170.679688 229.667969 171.976562 C 228.566406 187.792969 224.648438 205.261719 227.21875 220.992188 C 227.328125 221.65625 228.398438 221.824219 228.601562 221.121094 C 232.972656 205.882812 231.789062 187.792969 231.703125 172.046875 Z M 231.703125 172.046875 "/>
<path style=" stroke:none;fill-rule:nonzero;fill:rgb(51.368713%,64.709473%,59.609985%);fill-opacity:1;" d="M 242.054688 171.082031 C 242.003906 169.484375 239.597656 169.53125 239.542969 171.117188 C 238.875 188.261719 235.496094 206.34375 237.878906 223.394531 C 238.03125 224.472656 239.816406 224.488281 240.019531 223.433594 C 243.421875 206.578125 242.53125 188.195312 242.054688 171.082031 Z M 242.054688 171.082031 "/>
<path style=" stroke:none;fill-rule:nonzero;fill:rgb(51.368713%,64.709473%,59.609985%);fill-opacity:1;" d="M 251.796875 172.875 C 251.707031 171.167969 249.09375 171.242188 249.097656 172.953125 C 249.152344 187.332031 247.164062 202.003906 248.480469 216.320312 C 248.578125 217.390625 250.265625 217.890625 250.535156 216.648438 C 253.589844 202.449219 252.53125 187.273438 251.796875 172.875 Z M 251.796875 172.875 "/>
<path style=" stroke:none;fill-rule:nonzero;fill:rgb(51.368713%,64.709473%,59.609985%);fill-opacity:1;" d="M 263.316406 172.414062 C 263.21875 170.65625 260.566406 170.761719 260.558594 172.507812 C 260.5 186.207031 257.644531 200.449219 258.988281 214.066406 C 259.101562 215.246094 260.789062 215.652344 261.160156 214.386719 C 265.023438 201.113281 264.085938 186.0625 263.316406 172.414062 Z M 263.316406 172.414062 "/>
<path style=" stroke:none;fill-rule:nonzero;fill:rgb(51.368713%,64.709473%,59.609985%);fill-opacity:1;" d="M 272.117188 161.304688 C 269.769531 178.097656 266.328125 196.535156 269.167969 213.433594 C 269.332031 214.449219 271.054688 214.53125 271.246094 213.480469 C 274.296875 196.628906 273.542969 178.644531 274.777344 161.558594 C 274.882812 160.0625 272.320312 159.808594 272.117188 161.304688 Z M 272.117188 161.304688 "/>
<path style=" stroke:none;fill-rule:nonzero;fill:rgb(51.368713%,64.709473%,59.609985%);fill-opacity:1;" d="M 285.019531 160.015625 C 284.882812 158.8125 283.019531 159.089844 282.949219 160.222656 C 282.011719 175.625 280.078125 191.0625 279.746094 206.488281 C 279.707031 208.246094 282.300781 208.234375 282.707031 206.695312 C 286.71875 191.515625 286.71875 175.511719 285.019531 160.015625 Z M 285.019531 160.015625 "/>
<path style=" stroke:none;fill-rule:nonzero;fill:rgb(51.368713%,64.709473%,59.609985%);fill-opacity:1;" d="M 297.144531 156.960938 C 297.011719 156.09375 295.789062 156.207031 295.664062 157.015625 C 293.632812 169.507812 292.179688 184.140625 294.605469 196.613281 C 294.769531 197.457031 296.105469 197.59375 296.34375 196.726562 C 299.667969 184.417969 299.097656 169.515625 297.144531 156.960938 Z M 297.144531 156.960938 "/>
<path style=" stroke:none;fill-rule:nonzero;fill:rgb(51.368713%,64.709473%,59.609985%);fill-opacity:1;" d="M 308.355469 161.097656 C 308.300781 159.332031 305.667969 159.464844 305.597656 161.199219 C 305.328125 168.105469 303.746094 175.710938 305.292969 182.542969 C 305.453125 183.28125 306.523438 183.417969 306.792969 182.671875 C 309.214844 175.964844 308.570312 168.117188 308.355469 161.097656 Z M 308.355469 161.097656 "/>
<path style=" stroke:none;fill-rule:nonzero;fill:rgb(51.368713%,64.709473%,59.609985%);fill-opacity:1;" d="M 277.496094 218.453125 C 277.40625 217.449219 275.859375 217.625 275.777344 218.554688 C 274.578125 231.65625 274.160156 245.070312 275.792969 258.136719 C 275.921875 259.152344 277.398438 258.957031 277.511719 258.039062 C 279.132812 244.941406 278.707031 231.566406 277.496094 218.453125 Z M 277.496094 218.453125 "/>
<path style=" stroke:none;fill-rule:nonzero;fill:rgb(51.368713%,64.709473%,59.609985%);fill-opacity:1;" d="M 270.085938 218.597656 C 270.003906 216.988281 267.671875 217.042969 267.574219 218.628906 C 266.550781 235.34375 264.507812 252.785156 266.027344 269.5 C 266.113281 270.460938 267.746094 270.511719 267.9375 269.578125 C 271.242188 253.1875 271.007812 235.253906 270.085938 218.597656 Z M 270.085938 218.597656 "/>
<path style=" stroke:none;fill-rule:nonzero;fill:rgb(51.368713%,64.709473%,59.609985%);fill-opacity:1;" d="M 259.707031 223.628906 C 259.644531 222.402344 257.796875 222.273438 257.734375 223.558594 C 256.871094 239.628906 256.519531 255.667969 257.839844 271.726562 C 257.921875 272.757812 259.539062 272.578125 259.617188 271.605469 C 260.910156 255.617188 260.589844 239.640625 259.707031 223.628906 Z M 259.707031 223.628906 "/>
<path style=" stroke:none;fill-rule:nonzero;fill:rgb(51.368713%,64.709473%,59.609985%);fill-opacity:1;" d="M 249.828125 225.828125 C 249.769531 225.492188 249.324219 225.472656 249.230469 225.804688 C 244.75 241.773438 245.160156 262.082031 246.984375 278.449219 C 247.074219 279.292969 248.28125 279.160156 248.402344 278.402344 C 251.117188 262.046875 252.566406 242.226562 249.828125 225.828125 Z M 249.828125 225.828125 "/>
<path style=" stroke:none;fill-rule:nonzero;fill:rgb(51.368713%,64.709473%,59.609985%);fill-opacity:1;" d="M 238.15625 229.6875 C 237.980469 229.070312 237 229.273438 236.957031 229.851562 C 235.539062 248.820312 234.769531 271.890625 238.21875 290.679688 C 238.378906 291.550781 239.554688 291.414062 239.699219 290.625 C 243.265625 272.09375 243.492188 247.992188 238.15625 229.6875 Z M 238.15625 229.6875 "/>
<path style=" stroke:none;fill-rule:nonzero;fill:rgb(51.368713%,64.709473%,59.609985%);fill-opacity:1;" d="M 229.261719 240.285156 C 229.214844 239.832031 228.480469 239.796875 228.433594 240.269531 C 226.90625 254.761719 225.742188 270.769531 228.222656 285.214844 C 228.347656 285.925781 229.351562 285.886719 229.472656 285.195312 C 231.960938 270.769531 230.777344 254.769531 229.261719 240.285156 Z M 229.261719 240.285156 "/>
<path style=" stroke:none;fill-rule:nonzero;fill:rgb(51.368713%,64.709473%,59.609985%);fill-opacity:1;" d="M 221.074219 239.675781 C 220.910156 238.761719 219.355469 238.613281 219.171875 239.589844 C 216.191406 255.117188 217.308594 272.214844 217.996094 287.964844 C 218.035156 288.84375 219.359375 288.691406 219.484375 287.914062 C 221.855469 272.394531 223.9375 255.21875 221.074219 239.675781 Z M 221.074219 239.675781 "/>
<path style=" stroke:none;fill-rule:nonzero;fill:rgb(51.368713%,64.709473%,59.609985%);fill-opacity:1;" d="M 210.042969 240.582031 C 209.859375 240.050781 209.101562 240.214844 209.011719 240.722656 C 207.4375 249.335938 208.328125 258.464844 208.40625 267.199219 C 208.480469 274.816406 208.542969 282.664062 209.957031 290.167969 C 210.0625 290.722656 210.859375 290.75 210.964844 290.175781 C 213.820312 275.328125 215.042969 255.117188 210.042969 240.582031 Z M 210.042969 240.582031 "/>
<path style=" stroke:none;fill-rule:nonzero;fill:rgb(51.368713%,64.709473%,59.609985%);fill-opacity:1;" d="M 135.460938 248.632812 C 134.625 253.757812 133.960938 258.851562 133.492188 264.023438 C 133.070312 268.609375 132.132812 273.234375 133.5625 277.691406 C 133.761719 278.308594 134.546875 278.101562 134.785156 277.671875 C 136.972656 273.636719 136.75 269.007812 136.988281 264.527344 C 137.277344 259.339844 137.386719 254.160156 137.515625 248.957031 C 137.546875 247.832031 135.65625 247.453125 135.460938 248.632812 Z M 135.460938 248.632812 "/>
<path style=" stroke:none;fill-rule:nonzero;fill:rgb(51.368713%,64.709473%,59.609985%);fill-opacity:1;" d="M 127.855469 243.714844 C 127.617188 243.152344 126.6875 243.253906 126.648438 243.878906 C 126.410156 247.851562 126.484375 251.8125 126.363281 255.785156 C 126.25 259.566406 125.664062 263.164062 126.546875 266.890625 C 126.785156 267.882812 128.332031 268.132812 128.804688 267.179688 C 132.15625 260.339844 130.75 250.492188 127.855469 243.714844 Z M 127.855469 243.714844 "/>
<path style=" stroke:none;fill-rule:nonzero;fill:rgb(51.368713%,64.709473%,59.609985%);fill-opacity:1;" d="M 121.417969 253.074219 C 121.351562 251.355469 121.183594 249.648438 120.925781 247.949219 C 120.65625 246.136719 117.769531 246.242188 117.992188 248.101562 C 118.210938 249.828125 118.316406 251.554688 118.351562 253.28125 C 118.386719 254.886719 118.195312 256.398438 119.167969 257.753906 C 119.566406 258.308594 120.453125 258.09375 120.785156 257.613281 C 121.6875 256.289062 121.46875 254.617188 121.417969 253.074219 Z M 121.417969 253.074219 "/>
<path style=" stroke:none;fill-rule:nonzero;fill:rgb(51.368713%,64.709473%,59.609985%);fill-opacity:1;" d="M 301.539062 300.367188 C 301.460938 294.113281 301.847656 287.230469 299.722656 281.285156 C 299.550781 280.824219 298.75 280.789062 298.605469 281.285156 C 296.929688 287.210938 297.535156 293.898438 297.574219 299.980469 C 297.617188 307.53125 297.683594 315.324219 299.003906 322.773438 C 299.128906 323.476562 300.128906 323.445312 300.25 322.753906 C 301.535156 315.441406 301.625 307.773438 301.539062 300.367188 Z M 301.539062 300.367188 "/>
<path style=" stroke:none;fill-rule:nonzero;fill:rgb(51.368713%,64.709473%,59.609985%);fill-opacity:1;" d="M 291.457031 279.625 C 291.304688 279.027344 290.429688 278.960938 290.328125 279.625 C 289.085938 287.558594 289.359375 295.613281 289.230469 303.617188 C 289.074219 313.03125 288.105469 323.074219 290.359375 332.253906 C 290.46875 332.703125 291.21875 332.960938 291.386719 332.398438 C 295.953125 317.175781 295.402344 294.996094 291.457031 279.625 Z M 291.457031 279.625 "/>
<path style=" stroke:none;fill-rule:nonzero;fill:rgb(51.368713%,64.709473%,59.609985%);fill-opacity:1;" d="M 281.835938 284.59375 C 281.6875 283.949219 280.761719 283.925781 280.648438 284.605469 C 277.878906 300.292969 277.261719 320.292969 280.671875 335.882812 C 280.785156 336.367188 281.605469 336.613281 281.765625 336.019531 C 285.960938 320.742188 285.355469 300.097656 281.835938 284.59375 Z M 281.835938 284.59375 "/>
<path style=" stroke:none;fill-rule:nonzero;fill:rgb(51.368713%,64.709473%,59.609985%);fill-opacity:1;" d="M 270.71875 289.449219 C 270.605469 288.3125 268.816406 288.542969 268.757812 289.613281 C 267.917969 306.546875 265.246094 326.183594 269.558594 342.6875 C 269.703125 343.242188 270.640625 343.535156 270.824219 342.824219 C 275.144531 326.34375 272.398438 306.222656 270.71875 289.449219 Z M 270.71875 289.449219 "/>
<path style=" stroke:none;fill-rule:nonzero;fill:rgb(51.368713%,64.709473%,59.609985%);fill-opacity:1;" d="M 261.671875 288.199219 C 261.527344 287.46875 260.46875 287.484375 260.367188 288.226562 C 258.097656 304.894531 258.519531 323.929688 261.027344 340.511719 C 261.15625 341.378906 262.644531 341.519531 262.820312 340.613281 C 266.027344 324.296875 264.855469 304.488281 261.671875 288.199219 Z M 261.671875 288.199219 "/>
<path style=" stroke:none;fill-rule:nonzero;fill:rgb(51.368713%,64.709473%,59.609985%);fill-opacity:1;" d="M 250.0625 292.300781 C 249.925781 291.625 248.976562 291.757812 248.992188 292.429688 C 249.351562 307.328125 247.238281 324.15625 251.140625 338.625 C 251.304688 339.199219 252.285156 339.5 252.472656 338.761719 C 256.289062 324.351562 252.976562 306.605469 250.0625 292.300781 Z M 250.0625 292.300781 "/>
<path style=" stroke:none;fill-rule:nonzero;fill:rgb(51.368713%,64.709473%,59.609985%);fill-opacity:1;" d="M 239.480469 293.515625 C 239.308594 293.003906 238.398438 293.089844 238.394531 293.660156 C 238.21875 309.121094 239.007812 326.582031 241.757812 341.863281 C 241.941406 342.921875 243.371094 342.671875 243.535156 341.742188 C 246.152344 326.679688 244.53125 307.953125 239.480469 293.515625 Z M 239.480469 293.515625 "/>
<path style=" stroke:none;fill-rule:nonzero;fill:rgb(51.368713%,64.709473%,59.609985%);fill-opacity:1;" d="M 229.148438 298.121094 C 228.949219 297.304688 227.65625 297.28125 227.613281 298.1875 C 226.894531 311.820312 227.300781 326.121094 229.234375 339.648438 C 229.410156 340.855469 231.101562 340.503906 231.246094 339.457031 C 233.105469 326.074219 232.445312 311.261719 229.148438 298.121094 Z M 229.148438 298.121094 "/>
<path style=" stroke:none;fill-rule:nonzero;fill:rgb(51.368713%,64.709473%,59.609985%);fill-opacity:1;" d="M 286.371094 345.246094 C 286.289062 344.625 285.421875 344.660156 285.304688 345.246094 C 281.925781 362.453125 280.429688 382.882812 283.144531 400.21875 C 283.304688 401.246094 284.710938 401.019531 284.863281 400.121094 C 287.796875 382.855469 288.71875 362.660156 286.371094 345.246094 Z M 286.371094 345.246094 "/>
<path style=" stroke:none;fill-rule:nonzero;fill:rgb(51.368713%,64.709473%,59.609985%);fill-opacity:1;" d="M 296.136719 341.714844 C 296.046875 340.3125 294.011719 340.246094 293.917969 341.675781 C 292.804688 359.753906 290.207031 380.121094 294.207031 397.945312 C 294.371094 398.691406 295.628906 398.917969 295.820312 398.0625 C 299.84375 380.300781 297.285156 359.753906 296.136719 341.714844 Z M 296.136719 341.714844 "/>
<path style=" stroke:none;fill-rule:nonzero;fill:rgb(51.368713%,64.709473%,59.609985%);fill-opacity:1;" d="M 306.132812 345.539062 C 306.015625 344.394531 304.128906 344.609375 304.121094 345.726562 C 304.019531 361.277344 300.550781 378.683594 303.65625 393.960938 C 303.867188 394.964844 305.421875 395.011719 305.6875 394.019531 C 309.65625 379.003906 307.75 360.839844 306.132812 345.539062 Z M 306.132812 345.539062 "/>
<path style=" stroke:none;fill-rule:nonzero;fill:rgb(51.368713%,64.709473%,59.609985%);fill-opacity:1;" d="M 318.375 339.40625 C 318.285156 337.769531 315.84375 337.816406 315.800781 339.449219 C 315.300781 356.582031 310.644531 375.140625 313.421875 392.105469 C 313.566406 392.996094 314.96875 393.078125 315.21875 392.195312 C 319.855469 375.695312 319.394531 356.429688 318.375 339.40625 Z M 318.375 339.40625 "/>
<path style=" stroke:none;fill-rule:nonzero;fill:rgb(51.368713%,64.709473%,59.609985%);fill-opacity:1;" d="M 326.929688 335.710938 C 326.773438 335.015625 325.691406 334.972656 325.628906 335.738281 C 324.917969 343.921875 324.945312 352.128906 324.488281 360.324219 C 323.964844 369.789062 322.0625 379.613281 323.316406 389.035156 C 323.484375 390.316406 325.195312 389.972656 325.574219 389.046875 C 331.746094 373.773438 330.53125 351.523438 326.929688 335.710938 Z M 326.929688 335.710938 "/>
<path style=" stroke:none;fill-rule:nonzero;fill:rgb(51.368713%,64.709473%,59.609985%);fill-opacity:1;" d="M 270.644531 358.222656 C 270.371094 355.472656 268.964844 353.941406 268.492188 351.609375 C 268.464844 351.4375 268.179688 351.535156 268.261719 351.707031 C 268.675781 352.574219 267.542969 357.160156 267.453125 358.082031 C 267.082031 362.007812 266.742188 365.945312 266.402344 369.882812 C 265.71875 377.964844 264.691406 386.007812 264.652344 394.136719 C 264.652344 395.21875 266.148438 395.480469 266.523438 394.460938 C 269.691406 386.019531 270.335938 376.957031 270.796875 368.039062 C 270.964844 364.804688 270.960938 361.453125 270.644531 358.222656 Z M 270.644531 358.222656 "/>
<path style=" stroke:none;fill-rule:nonzero;fill:rgb(51.368713%,64.709473%,59.609985%);fill-opacity:1;" d="M 259.546875 349.699219 C 259.445312 349.398438 258.933594 349.359375 258.828125 349.675781 C 257.046875 354.894531 257.03125 360.777344 256.660156 366.246094 C 256.328125 371.105469 255.828125 375.871094 256.160156 380.757812 C 256.292969 382.664062 259.007812 382.613281 259.425781 380.878906 C 261.628906 371.746094 262.546875 358.746094 259.546875 349.699219 Z M 259.546875 349.699219 "/>
<path style=" stroke:none;fill-rule:nonzero;fill:rgb(51.368713%,64.709473%,59.609985%);fill-opacity:1;" d="M 249.003906 350.125 C 248.847656 349.152344 247.367188 349.28125 247.289062 350.234375 C 246.480469 360.0625 244.363281 370.566406 245.828125 380.34375 C 245.988281 381.378906 247.34375 381.226562 247.679688 380.441406 C 251.707031 371.230469 250.546875 359.800781 249.003906 350.125 Z M 249.003906 350.125 "/>
<path style=" stroke:none;fill-rule:nonzero;fill:rgb(51.368713%,64.709473%,59.609985%);fill-opacity:1;" d="M 235.652344 353.429688 C 235.59375 351.789062 233.140625 351.851562 233.074219 353.476562 C 232.894531 357.886719 232.570312 362.277344 232.125 366.671875 C 231.773438 370.171875 231.230469 373.738281 232.019531 377.191406 C 232.191406 377.949219 233.421875 378.304688 233.816406 377.511719 C 237.191406 370.738281 235.90625 360.777344 235.652344 353.429688 Z M 235.652344 353.429688 "/>
<path style=" stroke:none;fill-rule:nonzero;fill:rgb(51.368713%,64.709473%,59.609985%);fill-opacity:1;" d="M 223.519531 358.152344 C 223.25 356.71875 221.128906 357.308594 221.308594 358.695312 C 221.992188 363.949219 221.058594 369.777344 222.566406 374.859375 C 222.765625 375.515625 223.828125 375.792969 224.066406 374.976562 C 225.609375 369.742188 224.488281 363.425781 223.519531 358.152344 Z M 223.519531 358.152344 "/>
<path style=" stroke:none;fill-rule:nonzero;fill:rgb(51.368713%,64.709473%,59.609985%);fill-opacity:1;" d="M 216.597656 357.722656 C 216.421875 356.496094 214.28125 356.730469 214.410156 357.957031 C 214.566406 359.433594 214.558594 360.886719 214.425781 362.359375 C 214.265625 364.023438 214.179688 365.773438 213.882812 367.414062 C 213.742188 368.21875 214.992188 368.460938 215.273438 367.734375 C 215.878906 366.15625 216.535156 364.773438 216.734375 363.089844 C 216.957031 361.300781 216.847656 359.5 216.597656 357.722656 Z M 216.597656 357.722656 "/>
<path style=" stroke:none;fill-rule:nonzero;fill:rgb(51.368713%,64.709473%,59.609985%);fill-opacity:1;" d="M 167.359375 35.625 C 136.710938 36.839844 104.789062 44.320312 75.363281 52.667969 C 74.210938 52.992188 74.546875 54.609375 75.734375 54.460938 C 106.386719 50.476562 137.441406 43.757812 167.589844 37.019531 C 168.519531 36.816406 168.273438 35.585938 167.359375 35.625 Z M 167.359375 35.625 "/>
<path style=" stroke:none;fill-rule:nonzero;fill:rgb(51.368713%,64.709473%,59.609985%);fill-opacity:1;" d="M 173.742188 45.402344 C 141.753906 48.339844 109.78125 52.816406 78.847656 61.503906 C 78.015625 61.746094 78.171875 63.027344 79.058594 62.847656 C 110.554688 56.777344 142.480469 52.992188 173.863281 46.398438 C 174.496094 46.257812 174.40625 45.347656 173.742188 45.402344 Z M 173.742188 45.402344 "/>
<path style=" stroke:none;fill-rule:nonzero;fill:rgb(51.368713%,64.709473%,59.609985%);fill-opacity:1;" d="M 208.378906 48.308594 C 177.042969 48.699219 145.0625 58.484375 114.761719 65.597656 C 113.589844 65.875 113.953125 67.558594 115.132812 67.382812 C 146.351562 62.847656 177.53125 55.972656 208.53125 50.171875 C 209.589844 49.976562 209.480469 48.289062 208.378906 48.308594 Z M 208.378906 48.308594 "/>
<path style=" stroke:none;fill-rule:nonzero;fill:rgb(51.368713%,64.709473%,59.609985%);fill-opacity:1;" d="M 207.238281 55.234375 C 188.777344 56.503906 170.214844 62.425781 152.253906 66.664062 C 151.246094 66.910156 151.507812 68.378906 152.546875 68.234375 C 170.863281 65.738281 190.277344 63.027344 207.671875 56.625 C 208.519531 56.3125 208.027344 55.171875 207.238281 55.234375 Z M 207.238281 55.234375 "/>
<path style=" stroke:none;fill-rule:nonzero;fill:rgb(51.368713%,64.709473%,59.609985%);fill-opacity:1;" d="M 206.664062 66.496094 C 197.796875 67.457031 189.070312 69.429688 180.320312 71.128906 C 178.816406 71.414062 179.445312 73.546875 180.902344 73.355469 C 189.707031 72.160156 198.625 71.183594 207.089844 68.398438 C 208.300781 68.003906 207.933594 66.359375 206.664062 66.496094 Z M 206.664062 66.496094 "/>
<path style=" stroke:none;fill-rule:nonzero;fill:rgb(51.368713%,64.709473%,59.609985%);fill-opacity:1;" d="M 93.285156 347.976562 C 84.09375 344.539062 71.347656 345.320312 61.804688 346.867188 C 60.96875 347 61.011719 348.25 61.859375 348.320312 C 68.167969 348.835938 74.515625 349.011719 80.835938 349.28125 C 84.988281 349.472656 89.03125 349.902344 93.144531 349.164062 C 93.75 349.050781 93.894531 348.203125 93.285156 347.976562 Z M 93.285156 347.976562 "/>
<path style=" stroke:none;fill-rule:nonzero;fill:rgb(51.368713%,64.709473%,59.609985%);fill-opacity:1;" d="M 156.839844 344.910156 C 144.429688 343 128.886719 347.5 116.796875 350.300781 C 115.964844 350.488281 116.140625 351.636719 116.992188 351.582031 C 124.199219 351.125 131.34375 350.285156 138.527344 349.535156 C 144.707031 348.886719 151.296875 348.65625 157.101562 346.375 C 157.882812 346.070312 157.5625 345.023438 156.839844 344.910156 Z M 156.839844 344.910156 "/>
<path style=" stroke:none;fill-rule:nonzero;fill:rgb(51.368713%,64.709473%,59.609985%);fill-opacity:1;" d="M 417.039062 187.382812 C 404.917969 187.042969 392.257812 188.664062 380.273438 190.34375 C 379.160156 190.496094 379.328125 192.285156 380.445312 192.269531 C 392.519531 192.066406 405.484375 191.546875 417.179688 188.457031 C 417.734375 188.316406 417.589844 187.398438 417.039062 187.382812 Z M 417.039062 187.382812 "/>
<path style=" stroke:none;fill-rule:nonzero;fill:rgb(51.368713%,64.709473%,59.609985%);fill-opacity:1;" d="M 412.167969 197.015625 C 399.886719 194.503906 384.792969 197.550781 372.5625 199.632812 C 371.71875 199.78125 371.742188 201.195312 372.640625 201.160156 C 385.277344 200.621094 400.132812 201.5 412.289062 197.984375 C 412.820312 197.832031 412.625 197.117188 412.167969 197.015625 Z M 412.167969 197.015625 "/>
<path style=" stroke:none;fill-rule:nonzero;fill:rgb(51.368713%,64.709473%,59.609985%);fill-opacity:1;" d="M 406.332031 206.453125 C 400.59375 205.566406 394.714844 206.515625 388.949219 206.9375 C 382.214844 207.4375 375.410156 207.4375 368.714844 208.375 C 367.929688 208.476562 368.039062 209.515625 368.746094 209.65625 C 380.054688 211.949219 395.796875 211.980469 406.523438 207.695312 C 407.164062 207.4375 406.960938 206.554688 406.332031 206.453125 Z M 406.332031 206.453125 "/>
<path style=" stroke:none;fill-rule:nonzero;fill:rgb(51.368713%,64.709473%,59.609985%);fill-opacity:1;" d="M 401.960938 216.597656 C 397.371094 215.457031 392.523438 215.574219 387.808594 215.695312 C 379.464844 215.90625 371.1875 215.914062 362.910156 217.136719 C 362.347656 217.21875 362.320312 218.042969 362.90625 218.128906 C 374.90625 219.882812 390.46875 221.433594 402.101562 217.671875 C 402.707031 217.472656 402.457031 216.71875 401.960938 216.597656 Z M 401.960938 216.597656 "/>
<path style=" stroke:none;fill-rule:nonzero;fill:rgb(51.368713%,64.709473%,59.609985%);fill-opacity:1;" d="M 394.347656 227.050781 C 389.65625 225.292969 384.792969 225.949219 379.832031 226.144531 C 372.269531 226.460938 364.597656 227.214844 357.351562 229.460938 C 356.703125 229.667969 356.882812 230.75 357.5625 230.757812 C 364.203125 230.796875 370.863281 230.191406 377.503906 229.882812 C 383.128906 229.609375 389.082031 230.347656 394.382812 228.304688 C 394.953125 228.09375 394.894531 227.253906 394.347656 227.050781 Z M 394.347656 227.050781 "/>
<path style=" stroke:none;fill-rule:nonzero;fill:rgb(51.368713%,64.709473%,59.609985%);fill-opacity:1;" d="M 406.816406 354.125 C 392.484375 352.636719 375.285156 355.417969 361.339844 358.996094 C 360.398438 359.238281 360.398438 360.75 361.464844 360.742188 C 375.859375 360.667969 393.335938 360.023438 406.921875 355.03125 C 407.363281 354.871094 407.304688 354.175781 406.816406 354.125 Z M 406.816406 354.125 "/>
<path style=" stroke:none;fill-rule:nonzero;fill:rgb(51.368713%,64.709473%,59.609985%);fill-opacity:1;" d="M 401.960938 364.929688 C 390.183594 363.234375 375.703125 364.414062 364.3125 367.753906 C 363.554688 367.976562 363.453125 369.164062 364.367188 369.210938 C 376.292969 369.851562 390.355469 368.964844 402 366.277344 C 402.75 366.09375 402.75 365.039062 401.960938 364.929688 Z M 401.960938 364.929688 "/>
<path style=" stroke:none;fill-rule:nonzero;fill:rgb(51.368713%,64.709473%,59.609985%);fill-opacity:1;" d="M 411.679688 371.542969 C 399.417969 369.429688 383.667969 372.316406 371.652344 375.109375 C 371.074219 375.238281 370.964844 376.207031 371.660156 376.214844 C 378.925781 376.332031 386.128906 375.769531 393.375 375.3125 C 399.546875 374.917969 406.046875 374.929688 411.941406 373.011719 C 412.761719 372.738281 412.363281 371.660156 411.679688 371.542969 Z M 411.679688 371.542969 "/>
<path style=" stroke:none;fill-rule:nonzero;fill:rgb(51.368713%,64.709473%,59.609985%);fill-opacity:1;" d="M 415.800781 379.550781 C 410.023438 378.121094 403.910156 379.164062 398.011719 379.558594 C 391.410156 380 384.84375 380.863281 378.300781 381.84375 C 377.117188 382.015625 377.328125 383.882812 378.507812 383.871094 C 385.183594 383.824219 391.839844 383.515625 398.507812 383.183594 C 404.1875 382.902344 410.300781 383.21875 415.707031 381.371094 C 416.515625 381.097656 416.832031 379.8125 415.800781 379.550781 Z M 415.800781 379.550781 "/>
<path style=" stroke:none;fill-rule:nonzero;fill:rgb(51.368713%,64.709473%,59.609985%);fill-opacity:1;" d="M 421.378906 386.628906 C 409.539062 385.609375 396.925781 388.660156 385.203125 390.207031 C 384.308594 390.316406 384.363281 391.796875 385.289062 391.777344 C 397.113281 391.410156 410.074219 391.558594 421.566406 388.613281 C 422.707031 388.316406 422.527344 386.730469 421.378906 386.628906 Z M 421.378906 386.628906 "/>
<path style=" stroke:none;fill-rule:nonzero;fill:rgb(51.368713%,64.709473%,59.609985%);fill-opacity:1;" d="M 427.953125 393.941406 C 422.773438 392.703125 417.363281 393.796875 412.101562 394.195312 C 406.167969 394.65625 400.289062 395.449219 394.410156 396.3125 C 393.34375 396.46875 393.503906 398.0625 394.539062 398.125 C 400.625 398.460938 406.601562 398.367188 412.683594 397.992188 C 417.832031 397.664062 423.316406 397.695312 428.074219 395.632812 C 428.796875 395.320312 428.746094 394.132812 427.953125 393.941406 Z M 427.953125 393.941406 "/>
<path style=" stroke:none;fill-rule:nonzero;fill:rgb(51.368713%,64.709473%,59.609985%);fill-opacity:1;" d="M 451.785156 379.714844 C 447.957031 383.199219 444.125 386.703125 440.09375 389.972656 C 436.132812 393.214844 430.953125 395.992188 427.867188 400.0625 C 427.652344 400.339844 427.691406 400.703125 427.859375 401 C 424.152344 400.859375 420.328125 401.421875 416.691406 401.742188 C 410.953125 402.234375 405.226562 402.578125 399.742188 404.382812 C 399.210938 404.554688 399.359375 405.324219 399.871094 405.394531 C 405.636719 406.222656 411.429688 405.730469 417.222656 405.445312 C 422.152344 405.203125 427.46875 405.304688 432.042969 403.394531 C 432.875 403.039062 432.722656 401.679688 431.859375 401.484375 C 431.140625 401.324219 430.414062 401.222656 429.683594 401.132812 C 433.824219 399.566406 437.4375 396.15625 440.730469 393.339844 C 445.242188 389.5 449.507812 385.507812 453.335938 380.984375 C 454.085938 380.097656 452.609375 378.960938 451.785156 379.714844 Z M 451.785156 379.714844 "/>
<path style=" stroke:none;fill-rule:nonzero;fill:rgb(51.368713%,64.709473%,59.609985%);fill-opacity:1;" d="M 438.667969 408.644531 C 434.871094 407.273438 430.660156 407.917969 426.699219 408.238281 C 421.492188 408.65625 416.441406 409.722656 411.4375 411.191406 C 410.335938 411.511719 410.632812 413.074219 411.796875 412.921875 C 416.886719 412.28125 422.011719 412.019531 427.140625 411.757812 C 431.09375 411.558594 435.128906 412.007812 438.871094 410.601562 C 439.847656 410.230469 439.453125 408.921875 438.667969 408.644531 Z M 438.667969 408.644531 "/>
<path style=" stroke:none;fill-rule:nonzero;fill:rgb(51.368713%,64.709473%,59.609985%);fill-opacity:1;" d="M 441.308594 416.554688 C 440.035156 415.914062 439.34375 416.0625 437.90625 416.292969 C 434.53125 416.8125 431.199219 417.546875 427.832031 418.074219 C 426.453125 418.28125 426.78125 420.535156 428.15625 420.445312 C 430.601562 420.289062 433.042969 420.113281 435.480469 419.863281 C 437.609375 419.640625 440.167969 419.5625 441.578125 417.820312 C 441.867188 417.472656 441.730469 416.765625 441.308594 416.554688 Z M 441.308594 416.554688 "/>
<path style=" stroke:none;fill-rule:nonzero;fill:rgb(51.368713%,64.709473%,59.609985%);fill-opacity:1;" d="M 381.984375 346.882812 C 378.425781 346.542969 374.890625 347.203125 371.359375 347.597656 C 367.136719 348.0625 362.859375 348.113281 358.703125 349.007812 C 357.4375 349.28125 357.429688 351.441406 358.777344 351.574219 C 363.109375 352.007812 367.480469 351.507812 371.796875 351.121094 C 375.46875 350.792969 379.101562 350.433594 382.414062 348.769531 C 383.367188 348.304688 382.964844 346.980469 381.984375 346.882812 Z M 381.984375 346.882812 "/>
<path style=" stroke:none;fill-rule:nonzero;fill:rgb(51.368713%,64.709473%,59.609985%);fill-opacity:1;" d="M 375.6875 336.703125 C 369.835938 336.476562 364 338.058594 358.144531 338.265625 C 356.851562 338.308594 356.753906 340.25 358.074219 340.265625 C 363.96875 340.324219 370.320312 340.039062 375.882812 337.949219 C 376.488281 337.71875 376.355469 336.730469 375.6875 336.703125 Z M 375.6875 336.703125 "/>
<path style=" stroke:none;fill-rule:nonzero;fill:rgb(51.368713%,64.709473%,59.609985%);fill-opacity:1;" d="M 450.164062 338.050781 C 443.179688 323.863281 438.414062 311.738281 437.125 295.792969 C 436.105469 283.234375 437.226562 270.433594 438.257812 257.917969 C 438.355469 256.808594 436.671875 256.714844 436.53125 257.800781 C 433.238281 282.5625 429.097656 319.042969 449.03125 338.707031 C 449.527344 339.195312 450.507812 338.777344 450.164062 338.050781 Z M 450.164062 338.050781 "/>
<path style=" stroke:none;fill-rule:nonzero;fill:rgb(51.368713%,64.709473%,59.609985%);fill-opacity:1;" d="M 457.917969 328.96875 C 449.558594 311.707031 446.472656 294.164062 447.3125 275.097656 C 447.386719 273.605469 445.109375 273.628906 444.980469 275.09375 C 443.300781 294.167969 444.757812 313.820312 456.835938 329.589844 C 457.269531 330.144531 458.222656 329.605469 457.917969 328.96875 Z M 457.917969 328.96875 "/>
<path style=" stroke:none;fill-rule:nonzero;fill:rgb(51.368713%,64.709473%,59.609985%);fill-opacity:1;" d="M 457.386719 290.667969 C 457.265625 289.496094 455.285156 289.714844 455.316406 290.871094 C 455.507812 300.574219 456.542969 310.730469 460.828125 319.59375 C 461.335938 320.636719 462.84375 320.011719 462.679688 318.949219 C 461.191406 309.441406 458.382812 300.328125 457.386719 290.667969 Z M 457.386719 290.667969 "/>
<path style=" stroke:none;fill-rule:nonzero;fill:rgb(51.368713%,64.709473%,59.609985%);fill-opacity:1;" d="M 560.175781 254.382812 C 559.550781 253.535156 558.171875 254.488281 558.652344 255.394531 C 570.386719 277.660156 570.175781 298.574219 567.183594 322.917969 C 567.105469 323.554688 568.015625 323.773438 568.277344 323.199219 C 578.023438 301.402344 574.203125 273.460938 560.175781 254.382812 Z M 560.175781 254.382812 "/>
<path style=" stroke:none;fill-rule:nonzero;fill:rgb(51.368713%,64.709473%,59.609985%);fill-opacity:1;" d="M 557.691406 270.5 C 557.230469 269.109375 555.050781 269.632812 555.429688 271.078125 C 559.207031 285.300781 559.179688 299.296875 558.890625 313.863281 C 558.867188 315.039062 560.734375 315.382812 561.003906 314.179688 C 564.296875 299.5625 562.320312 284.625 557.691406 270.5 Z M 557.691406 270.5 "/>
<path style=" stroke:none;fill-rule:nonzero;fill:rgb(51.368713%,64.709473%,59.609985%);fill-opacity:1;" d="M 548.097656 275.683594 C 547.734375 274.785156 546.214844 275.28125 546.464844 276.21875 C 549.519531 287.664062 549.570312 298.277344 549.433594 309.988281 C 549.421875 310.882812 550.675781 311.195312 551.003906 310.316406 C 555.214844 298.976562 552.53125 286.566406 548.097656 275.683594 Z M 548.097656 275.683594 "/>
<path style=" stroke:none;fill-rule:nonzero;fill:rgb(51.368713%,64.709473%,59.609985%);fill-opacity:1;" d="M 542.535156 285.386719 C 542.140625 284.074219 540.0625 284.558594 540.433594 285.882812 C 541.089844 288.242188 541.554688 290.621094 541.847656 293.050781 C 542.15625 295.554688 541.933594 298.179688 542.628906 300.621094 C 542.828125 301.3125 543.960938 301.589844 544.191406 300.746094 C 545.457031 296.039062 543.894531 289.941406 542.535156 285.386719 Z M 542.535156 285.386719 "/>
<path style=" stroke:none;fill-rule:nonzero;fill:rgb(51.368713%,64.709473%,59.609985%);fill-opacity:1;" d="M 468.078125 385.222656 C 467.390625 385.203125 467.113281 385.703125 467.148438 386.242188 C 463.210938 389.703125 460.140625 394.449219 456.753906 398.421875 C 453.152344 402.65625 449.257812 406.613281 446.128906 411.207031 C 445.734375 411.792969 446.4375 412.46875 447.023438 412.066406 C 451.722656 408.863281 455.324219 404.695312 459.015625 400.433594 C 462.375 396.550781 466.253906 392.050781 468.222656 387.238281 C 468.453125 387.148438 468.679688 386.984375 468.871094 386.722656 C 469.3125 386.117188 468.804688 385.253906 468.078125 385.222656 Z M 468.078125 385.222656 "/>
<path style=" stroke:none;fill-rule:nonzero;fill:rgb(51.368713%,64.709473%,59.609985%);fill-opacity:1;" d="M 461.058594 383.082031 C 457.070312 386.472656 453.515625 390.386719 449.777344 394.050781 C 446.015625 397.726562 441.578125 400.871094 438.246094 404.925781 C 437.78125 405.488281 438.507812 406.367188 439.160156 406.03125 C 443.429688 403.773438 446.882812 400.121094 450.296875 396.800781 C 454.445312 392.773438 458.539062 388.414062 461.5 383.449219 C 461.644531 383.207031 461.28125 382.886719 461.058594 383.082031 Z M 461.058594 383.082031 "/>
<path style=" stroke:none;fill-rule:nonzero;fill:rgb(51.368713%,64.709473%,59.609985%);fill-opacity:1;" d="M 443.363281 377.695312 C 440.1875 380.210938 436.84375 382.449219 433.347656 384.507812 C 430.222656 386.339844 426.679688 387.691406 423.882812 390.023438 C 423.402344 390.417969 423.710938 391.203125 424.351562 391.121094 C 431.863281 390.160156 439.382812 383.988281 445.039062 379.375 C 446.238281 378.398438 444.554688 376.753906 443.363281 377.695312 Z M 443.363281 377.695312 "/>
<path style=" stroke:none;fill-rule:nonzero;fill:rgb(51.368713%,64.709473%,59.609985%);fill-opacity:1;" d="M 440.230469 370.347656 C 435.980469 373.039062 431.601562 375.507812 427.148438 377.859375 C 423.824219 379.617188 419.226562 380.84375 417.027344 383.957031 C 416.820312 384.257812 416.945312 384.792969 417.386719 384.804688 C 421.332031 384.953125 425.140625 381.925781 428.5 380.09375 C 432.898438 377.695312 437.191406 375.117188 441.371094 372.359375 C 442.609375 371.535156 441.503906 369.542969 440.230469 370.347656 Z M 440.230469 370.347656 "/>
<path style=" stroke:none;fill-rule:nonzero;fill:rgb(51.368713%,64.709473%,59.609985%);fill-opacity:1;" d="M 435 363.304688 C 431 365.582031 426.980469 367.835938 422.96875 370.113281 C 419.046875 372.324219 414.226562 374.203125 411.074219 377.429688 C 410.523438 377.992188 410.886719 379.03125 411.769531 378.871094 C 415.867188 378.109375 419.460938 375.449219 422.988281 373.355469 C 427.394531 370.746094 431.632812 367.855469 435.898438 365.035156 C 436.925781 364.351562 436.125 362.660156 435 363.304688 Z M 435 363.304688 "/>
<path style=" stroke:none;fill-rule:nonzero;fill:rgb(51.368713%,64.709473%,59.609985%);fill-opacity:1;" d="M 430.769531 357.761719 C 426.097656 358.679688 421.738281 360.234375 417.335938 362 C 413.5 363.539062 408.945312 365.457031 406.25 368.585938 C 405.886719 369.003906 406.328125 369.644531 406.84375 369.566406 C 410.914062 368.984375 414.695312 366.617188 418.496094 365.097656 C 422.871094 363.351562 427.292969 361.710938 431.660156 359.925781 C 432.984375 359.394531 432.027344 357.507812 430.769531 357.761719 Z M 430.769531 357.761719 "/>
<path style=" stroke:none;fill-rule:nonzero;fill:rgb(51.368713%,64.709473%,59.609985%);fill-opacity:1;" d="M 430.738281 348.613281 C 421.273438 350.722656 411.238281 352.832031 402.628906 357.398438 C 402.046875 357.710938 402.230469 358.613281 402.945312 358.527344 C 412.640625 357.382812 422.105469 353.800781 431.40625 351.003906 C 432.960938 350.527344 432.320312 348.253906 430.738281 348.613281 Z M 430.738281 348.613281 "/>
<path style=" stroke:none;fill-rule:nonzero;fill:rgb(51.368713%,64.709473%,59.609985%);fill-opacity:1;" d="M 430.636719 339.792969 C 420.613281 339.953125 408.9375 341.226562 400.054688 346.15625 C 399.191406 346.632812 399.601562 347.90625 400.59375 347.765625 C 410.6875 346.328125 420.726562 343.460938 430.773438 341.601562 C 431.792969 341.410156 431.703125 339.78125 430.636719 339.792969 Z M 430.636719 339.792969 "/>
<path style=" stroke:none;fill-rule:nonzero;fill:rgb(51.368713%,64.709473%,59.609985%);fill-opacity:1;" d="M 424.167969 330.96875 C 414.777344 331.371094 405.035156 333.761719 396.761719 338.199219 C 396.148438 338.523438 396.34375 339.605469 397.121094 339.429688 C 406.296875 337.347656 415.496094 334.808594 424.523438 332.207031 C 425.296875 331.976562 424.851562 330.929688 424.167969 330.96875 Z M 424.167969 330.96875 "/>
<path style=" stroke:none;fill-rule:nonzero;fill:rgb(51.368713%,64.709473%,59.609985%);fill-opacity:1;" d="M 425.707031 321.316406 C 414.234375 322.203125 401.539062 321.550781 390.453125 324.804688 C 389.851562 324.988281 390.019531 325.964844 390.632812 325.996094 C 402.1875 326.53125 414.375 323.640625 425.734375 321.78125 C 426.035156 321.734375 426.019531 321.285156 425.707031 321.316406 Z M 425.707031 321.316406 "/>
<path style=" stroke:none;fill-rule:nonzero;fill:rgb(51.368713%,64.709473%,59.609985%);fill-opacity:1;" d="M 570.109375 190.515625 C 570.171875 190.363281 570.214844 190.242188 570.199219 190.082031 C 570.164062 189.703125 569.710938 189.539062 569.410156 189.742188 C 566.835938 191.511719 565.738281 195.480469 564.546875 198.144531 C 562.292969 203.210938 560.550781 208.222656 558.933594 213.5 C 558.574219 214.660156 560.246094 215.375 560.882812 214.367188 C 563.292969 210.574219 565.175781 206.714844 566.652344 202.46875 C 567.628906 199.65625 568.59375 196.828125 569.589844 194.027344 C 569.90625 193.117188 569.804688 192.324219 569.921875 191.414062 C 569.96875 191.0625 569.933594 190.867188 569.859375 190.738281 C 569.96875 190.707031 570.058594 190.640625 570.109375 190.515625 Z M 570.109375 190.515625 "/>
<path style=" stroke:none;fill-rule:nonzero;fill:rgb(51.368713%,64.709473%,59.609985%);fill-opacity:1;" d="M 577.910156 197.84375 C 571.039062 203.210938 566.035156 212.386719 562.027344 219.964844 C 561.53125 220.902344 562.765625 222.15625 563.574219 221.253906 C 569.375 214.777344 576.128906 206.890625 579.246094 198.75 C 579.546875 197.957031 578.539062 197.351562 577.910156 197.84375 Z M 577.910156 197.84375 "/>
<path style=" stroke:none;fill-rule:nonzero;fill:rgb(51.368713%,64.709473%,59.609985%);fill-opacity:1;" d="M 585.421875 203.871094 C 579.042969 209.621094 571.8125 216.6875 567.65625 224.214844 C 567.128906 225.183594 568.300781 226.632812 569.332031 225.863281 C 576.390625 220.628906 582.371094 212.472656 587.242188 205.285156 C 587.992188 204.175781 586.371094 203.023438 585.421875 203.871094 Z M 585.421875 203.871094 "/>
<path style=" stroke:none;fill-rule:nonzero;fill:rgb(51.368713%,64.709473%,59.609985%);fill-opacity:1;" d="M 597.472656 217.742188 C 593.09375 217.511719 589.066406 220.046875 585.339844 222.078125 C 580.492188 224.714844 575.761719 227.867188 571.722656 231.605469 C 570.691406 232.566406 572.042969 234.308594 573.25 233.550781 C 577.183594 231.058594 581.023438 228.488281 585.148438 226.296875 C 589.289062 224.085938 594.765625 222.660156 597.984375 219.238281 C 598.476562 218.730469 598.308594 217.777344 597.472656 217.742188 Z M 597.472656 217.742188 "/>
<path style=" stroke:none;fill-rule:nonzero;fill:rgb(51.368713%,64.709473%,59.609985%);fill-opacity:1;" d="M 599.855469 226.027344 C 595.242188 225.945312 590.890625 228.578125 586.835938 230.511719 C 582.074219 232.796875 577.699219 235.488281 573.445312 238.589844 C 572.164062 239.527344 573.25 241.5 574.707031 240.734375 C 579.191406 238.355469 583.820312 236.1875 588.453125 234.113281 C 592.550781 232.265625 597.402344 231.164062 600.691406 228.054688 C 601.460938 227.324219 600.890625 226.054688 599.855469 226.027344 Z M 599.855469 226.027344 "/>
<path style=" stroke:none;fill-rule:nonzero;fill:rgb(51.368713%,64.709473%,59.609985%);fill-opacity:1;" d="M 601.097656 237.75 C 597.710938 238.195312 594.226562 240.136719 591.160156 241.605469 C 587.417969 243.390625 583.613281 245.066406 579.851562 246.816406 C 578.679688 247.363281 579.445312 249.285156 580.675781 248.882812 C 584.601562 247.613281 588.457031 246.179688 592.292969 244.664062 C 595.554688 243.378906 599.480469 241.902344 601.972656 239.425781 C 602.691406 238.710938 602.082031 237.628906 601.097656 237.75 Z M 601.097656 237.75 "/>
<path style=" stroke:none;fill-rule:nonzero;fill:rgb(51.368713%,64.709473%,59.609985%);fill-opacity:1;" d="M 610.84375 248.3125 C 605.558594 247.027344 599.824219 249.160156 594.652344 250.417969 C 589.457031 251.675781 584.179688 253.097656 579.386719 255.457031 C 578.441406 255.929688 578.757812 257.625 579.890625 257.511719 C 585.886719 256.90625 591.796875 255.308594 597.683594 254.046875 C 602.296875 253.0625 607.335938 252.761719 611.210938 249.960938 C 611.8125 249.527344 611.535156 248.476562 610.84375 248.3125 Z M 610.84375 248.3125 "/>
<path style=" stroke:none;fill-rule:nonzero;fill:rgb(51.368713%,64.709473%,59.609985%);fill-opacity:1;" d="M 609.382812 259.351562 C 605.367188 257.972656 601.09375 258.902344 596.980469 259.546875 C 591.695312 260.359375 586.546875 261.664062 581.445312 263.234375 C 579.6875 263.777344 580.519531 266.277344 582.269531 265.882812 C 587.308594 264.761719 592.398438 263.914062 597.519531 263.253906 C 601.578125 262.730469 605.800781 262.894531 609.523438 261.089844 C 610.300781 260.71875 610.164062 259.621094 609.382812 259.351562 Z M 609.382812 259.351562 "/>
<path style=" stroke:none;fill-rule:nonzero;fill:rgb(51.368713%,64.709473%,59.609985%);fill-opacity:1;" d="M 610.101562 271.429688 C 605.675781 269.21875 600.414062 270.191406 595.632812 270.589844 C 591.183594 270.964844 586.824219 271.777344 582.554688 273.054688 C 581.351562 273.410156 581.476562 275.292969 582.816406 275.261719 C 587.164062 275.167969 591.515625 274.941406 595.867188 274.722656 C 600.558594 274.488281 605.726562 275.226562 610.007812 273.058594 C 610.601562 272.769531 610.765625 271.769531 610.101562 271.429688 Z M 610.101562 271.429688 "/>
<path style=" stroke:none;fill-rule:nonzero;fill:rgb(51.368713%,64.709473%,59.609985%);fill-opacity:1;" d="M 613.664062 285.246094 C 610.027344 283.328125 605.632812 283.039062 601.578125 282.457031 C 596.472656 281.71875 591 281.144531 585.898438 282.046875 C 584.574219 282.28125 584.816406 284.109375 585.925781 284.445312 C 590.765625 285.886719 595.886719 286.253906 600.859375 287.09375 C 604.773438 287.738281 609.144531 288.777344 613.09375 288.089844 C 614.542969 287.839844 615.097656 286 613.664062 285.246094 Z M 613.664062 285.246094 "/>
<path style=" stroke:none;fill-rule:nonzero;fill:rgb(51.368713%,64.709473%,59.609985%);fill-opacity:1;" d="M 617.671875 295.898438 C 607.90625 292.941406 595.898438 293.558594 585.730469 293.496094 C 584.277344 293.480469 584.082031 295.570312 585.441406 295.9375 C 595.289062 298.613281 607.660156 301.1875 617.710938 298.347656 C 619.003906 297.988281 618.875 296.257812 617.671875 295.898438 Z M 617.671875 295.898438 "/>
<path style=" stroke:none;fill-rule:nonzero;fill:rgb(51.368713%,64.709473%,59.609985%);fill-opacity:1;" d="M 594.53125 380.644531 C 587.484375 375.117188 579.070312 370.957031 571.214844 366.667969 C 570.066406 366.046875 569.042969 367.625 570.125 368.375 C 577.519531 373.457031 585.21875 379.148438 593.734375 382.277344 C 594.773438 382.660156 595.300781 381.25 594.53125 380.644531 Z M 594.53125 380.644531 "/>
<path style=" stroke:none;fill-rule:nonzero;fill:rgb(51.368713%,64.709473%,59.609985%);fill-opacity:1;" d="M 585.867188 387.855469 C 584.800781 384.359375 581.558594 381.816406 578.855469 379.507812 C 574.988281 376.195312 570.324219 373.804688 565.605469 371.945312 C 564.652344 371.574219 563.980469 372.996094 564.824219 373.523438 C 568.183594 375.648438 571.492188 377.90625 574.605469 380.359375 C 577.996094 383.039062 581.078125 386.882812 585.023438 388.71875 C 585.601562 388.980469 586.015625 388.339844 585.867188 387.855469 Z M 585.867188 387.855469 "/>
<path style=" stroke:none;fill-rule:nonzero;fill:rgb(51.368713%,64.709473%,59.609985%);fill-opacity:1;" d="M 579.207031 393.5 C 577.234375 390.402344 573.917969 388.253906 570.988281 386.0625 C 567.734375 383.640625 564.386719 381.367188 561 379.121094 C 560.066406 378.507812 558.8125 379.910156 559.699219 380.644531 C 562.785156 383.195312 565.863281 385.738281 568.992188 388.222656 C 571.867188 390.511719 574.726562 393.265625 578.179688 394.640625 C 578.808594 394.898438 579.601562 394.117188 579.207031 393.5 Z M 579.207031 393.5 "/>
<path style=" stroke:none;fill-rule:nonzero;fill:rgb(51.368713%,64.709473%,59.609985%);fill-opacity:1;" d="M 568.796875 400.9375 C 567.710938 398.523438 565.75 396.578125 563.976562 394.640625 C 561.605469 392.046875 559.234375 389.464844 556.917969 386.832031 C 555.914062 385.679688 554.363281 387.28125 555.238281 388.425781 C 556.902344 390.628906 558.609375 392.800781 560.332031 394.960938 C 562.410156 397.585938 564.394531 400.554688 567.144531 402.539062 C 568.210938 403.304688 569.222656 401.886719 568.796875 400.9375 Z M 568.796875 400.9375 "/>
</g>
</defs>
<g id="surface1">
<use xlink:href="#surface5" transform="matrix(1,0,0,1,93,182)" mask="url(#mask0)"/>
</g>
</svg>
