<?xml version="1.0" encoding="UTF-8"?>
<svg xmlns="http://www.w3.org/2000/svg" xmlns:xlink="http://www.w3.org/1999/xlink" width="371.25pt" height="74.999997pt" viewBox="0 0 371.25 74.999997" version="1.2">
<defs>
<clipPath id="clip1">
  <path d="M 0 0.0742188 L 370.5 0.0742188 L 370.5 74.175781 L 0 74.175781 Z M 0 0.0742188 "/>
</clipPath>
<clipPath id="clip3">
  <path d="M 224 0.0742188 L 370.5 0.0742188 L 370.5 74.019531 L 224 74.019531 Z M 224 0.0742188 "/>
</clipPath>
<clipPath id="clip5">
  <path d="M 1 0.0742188 L 146.5 0.0742188 L 146.5 74.019531 L 1 74.019531 Z M 1 0.0742188 "/>
</clipPath>
<clipPath id="clip4">
  <rect x="0" y="0" width="147" height="75"/>
</clipPath>
<g id="surface6" clip-path="url(#clip4)">
<g clip-path="url(#clip5)" clip-rule="nonzero">
<path style=" stroke:none;fill-rule:evenodd;fill:rgb(27.059937%,52.159119%,53.329468%);fill-opacity:1;" d="M 1.472656 -0.0820312 L 146.476562 -0.0820312 L 146.476562 74.019531 L 1.472656 74.019531 Z M 1.472656 -0.0820312 "/>
</g>
</g>
<clipPath id="clip2">
  <rect x="0" y="0" width="371" height="75"/>
</clipPath>
<g id="surface8" clip-path="url(#clip2)">
<path style=" stroke:none;fill-rule:nonzero;fill:rgb(20.779419%,20.779419%,20.779419%);fill-opacity:1;" d="M 11.304688 20.765625 C 12.132812 20.765625 12.726562 20.539062 13.097656 20.082031 C 13.464844 19.625 13.652344 19.082031 13.652344 18.449219 C 13.652344 18.097656 13.605469 17.773438 13.511719 17.476562 C 13.417969 17.179688 13.265625 16.917969 13.058594 16.6875 C 12.851562 16.480469 12.609375 16.324219 12.339844 16.214844 C 12.046875 16.089844 11.703125 16.027344 11.304688 16.027344 C 10.910156 16.027344 10.566406 16.089844 10.277344 16.214844 C 9.984375 16.335938 9.746094 16.492188 9.554688 16.6875 C 9.34375 16.917969 9.199219 17.1875 9.117188 17.488281 C 9.03125 17.804688 8.988281 18.125 8.988281 18.449219 C 8.988281 19.082031 9.167969 19.625 9.527344 20.082031 C 9.890625 20.539062 10.484375 20.765625 11.308594 20.765625 Z M 22.460938 54.71875 L 22.460938 51.90625 L 12.957031 51.90625 L 12.957031 26.242188 L 0.0234375 26.242188 L 0.0234375 29.058594 L 9.890625 29.058594 L 9.890625 51.902344 L 0.0234375 51.902344 L 0.0234375 54.71875 Z M 31.195312 54.71875 L 31.222656 33.003906 C 31.359375 32.480469 31.53125 31.953125 31.738281 31.425781 C 31.9375 30.90625 32.222656 30.429688 32.585938 30.003906 C 32.964844 29.550781 33.449219 29.183594 34.042969 28.914062 C 34.636719 28.640625 35.378906 28.496094 36.269531 28.480469 C 37.078125 28.460938 37.742188 28.585938 38.269531 28.847656 C 38.789062 29.109375 39.207031 29.460938 39.515625 29.898438 C 39.828125 30.355469 40.039062 30.878906 40.160156 31.464844 C 40.28125 32.054688 40.339844 32.644531 40.339844 33.242188 L 40.367188 54.71875 L 43.277344 54.71875 L 43.304688 33.269531 L 43.300781 33.144531 L 43.292969 33.03125 C 43.28125 32.953125 43.277344 32.875 43.277344 32.796875 C 43.398438 32.269531 43.570312 31.75 43.792969 31.242188 C 44.015625 30.734375 44.316406 30.277344 44.695312 29.875 C 45.089844 29.46875 45.578125 29.140625 46.164062 28.886719 C 46.746094 28.632812 47.46875 28.496094 48.328125 28.480469 C 49.167969 28.460938 49.855469 28.597656 50.386719 28.886719 C 50.921875 29.175781 51.339844 29.558594 51.652344 30.03125 C 51.96875 30.542969 52.179688 31.097656 52.28125 31.691406 C 52.394531 32.304688 52.449219 32.917969 52.449219 33.53125 L 52.476562 54.71875 L 55.386719 54.71875 L 55.410156 33.558594 C 55.410156 32.472656 55.300781 31.449219 55.078125 30.492188 C 54.855469 29.535156 54.484375 28.699219 53.96875 27.980469 C 53.503906 27.292969 52.863281 26.746094 52.039062 26.332031 C 51.214844 25.921875 50.21875 25.714844 49.050781 25.714844 C 48.242188 25.714844 47.507812 25.820312 46.847656 26.03125 C 46.183594 26.242188 45.589844 26.523438 45.054688 26.875 C 44.566406 27.199219 44.128906 27.585938 43.742188 28.03125 C 43.371094 28.460938 43.050781 28.925781 42.789062 29.425781 C 42.621094 28.925781 42.398438 28.453125 42.117188 28.003906 C 41.839844 27.5625 41.496094 27.175781 41.089844 26.847656 C 40.625 26.496094 40.074219 26.21875 39.4375 26.019531 C 38.804688 25.816406 38.074219 25.714844 37.25 25.714844 C 35.722656 25.730469 34.460938 26.078125 33.476562 26.753906 C 32.488281 27.429688 31.71875 28.328125 31.167969 29.453125 L 31.066406 26.242188 L 28.308594 26.242188 L 28.308594 54.71875 Z M 74.527344 55.246094 C 76.847656 55.246094 78.882812 54.78125 80.632812 53.851562 C 82.386719 52.921875 83.792969 51.703125 84.859375 50.195312 L 82.902344 48.667969 C 81.90625 49.929688 80.710938 50.894531 79.320312 51.5625 C 77.929688 52.230469 76.375 52.5625 74.65625 52.5625 C 73.164062 52.546875 71.804688 52.238281 70.585938 51.640625 C 69.363281 51.046875 68.316406 50.230469 67.445312 49.191406 C 66.585938 48.210938 65.910156 47.070312 65.421875 45.769531 C 64.933594 44.472656 64.652344 43.070312 64.582031 41.558594 L 64.582031 40.691406 L 85.449219 40.691406 L 85.449219 38.769531 C 85.449219 36.964844 85.199219 35.265625 84.691406 33.675781 C 84.183594 32.089844 83.449219 30.699219 82.488281 29.507812 C 81.511719 28.332031 80.304688 27.40625 78.867188 26.730469 C 77.433594 26.054688 75.796875 25.714844 73.960938 25.714844 C 72.210938 25.714844 70.582031 26.085938 69.078125 26.820312 C 67.558594 27.566406 66.246094 28.585938 65.148438 29.875 C 64.015625 31.171875 63.128906 32.699219 62.484375 34.453125 C 61.839844 36.210938 61.519531 38.105469 61.519531 40.140625 L 61.519531 41.269531 C 61.519531 43.183594 61.835938 44.988281 62.472656 46.679688 C 63.105469 48.375 64 49.859375 65.148438 51.140625 C 66.285156 52.40625 67.648438 53.40625 69.246094 54.140625 C 70.84375 54.878906 72.605469 55.246094 74.527344 55.246094 Z M 82.386719 37.980469 L 64.738281 37.980469 C 64.910156 36.613281 65.253906 35.34375 65.769531 34.175781 C 66.285156 33.011719 66.945312 31.996094 67.753906 31.136719 C 68.539062 30.292969 69.457031 29.632812 70.507812 29.148438 C 71.558594 28.667969 72.707031 28.425781 73.960938 28.425781 C 75.285156 28.425781 76.460938 28.683594 77.492188 29.203125 C 78.511719 29.710938 79.386719 30.398438 80.117188 31.269531 C 80.824219 32.128906 81.375 33.128906 81.78125 34.269531 C 82.183594 35.410156 82.386719 36.550781 82.386719 37.691406 Z M 101.785156 54.71875 L 101.734375 36.480469 C 102.078125 35.183594 102.570312 34.054688 103.214844 33.097656 C 103.859375 32.140625 104.617188 31.347656 105.492188 30.714844 C 106.433594 30.050781 107.460938 29.574219 108.574219 29.28125 C 109.714844 28.972656 110.9375 28.820312 112.246094 28.820312 C 113 28.820312 113.738281 28.863281 114.460938 28.953125 C 115.179688 29.039062 115.894531 29.164062 116.597656 29.320312 L 117.011719 26.265625 C 116.476562 26.09375 115.820312 25.957031 115.039062 25.859375 C 114.273438 25.765625 113.503906 25.714844 112.734375 25.714844 C 110.207031 25.695312 108.015625 26.230469 106.152344 27.320312 C 104.289062 28.410156 102.816406 29.925781 101.734375 31.875 L 101.707031 30.609375 L 101.527344 26.242188 L 98.589844 26.242188 L 98.589844 54.71875 Z M 137.515625 55.246094 C 138.976562 55.25 140.410156 55.0625 141.820312 54.695312 C 143.226562 54.324219 144.464844 53.753906 145.527344 52.984375 C 146.410156 52.332031 147.125 51.527344 147.667969 50.574219 C 148.21875 49.621094 148.492188 48.527344 148.492188 47.296875 C 148.492188 46 148.203125 44.890625 147.628906 43.96875 C 147.054688 43.046875 146.285156 42.261719 145.324219 41.613281 C 144.34375 40.964844 143.210938 40.429688 141.921875 40.007812 C 140.59375 39.574219 139.242188 39.207031 137.878906 38.902344 C 136.816406 38.683594 135.765625 38.425781 134.722656 38.125 C 133.71875 37.835938 132.855469 37.472656 132.132812 37.03125 C 131.410156 36.628906 130.863281 36.125 130.484375 35.519531 C 130.105469 34.914062 129.917969 34.199219 129.917969 33.375 C 129.917969 32.550781 130.132812 31.824219 130.5625 31.203125 C 131.003906 30.566406 131.5625 30.050781 132.234375 29.664062 C 132.921875 29.242188 133.707031 28.929688 134.59375 28.726562 C 135.496094 28.523438 136.410156 28.421875 137.335938 28.425781 C 138.332031 28.425781 139.300781 28.558594 140.234375 28.820312 C 141.171875 29.085938 142.007812 29.460938 142.746094 29.953125 C 143.460938 30.433594 144.050781 31.039062 144.511719 31.769531 C 144.964844 32.488281 145.203125 33.304688 145.21875 34.214844 L 148.335938 34.214844 C 148.285156 32.867188 147.964844 31.664062 147.371094 30.609375 C 146.777344 29.550781 145.988281 28.65625 145.011719 27.925781 C 144.035156 27.207031 142.890625 26.660156 141.574219 26.28125 C 140.261719 25.902344 138.847656 25.714844 137.335938 25.714844 C 135.996094 25.714844 134.695312 25.890625 133.433594 26.242188 C 132.171875 26.59375 131.070312 27.085938 130.125 27.714844 C 129.128906 28.398438 128.332031 29.222656 127.738281 30.1875 C 127.148438 31.15625 126.851562 32.25 126.851562 33.480469 C 126.851562 34.777344 127.148438 35.878906 127.738281 36.78125 C 128.34375 37.703125 129.121094 38.445312 130.070312 39.007812 C 131.121094 39.632812 132.230469 40.132812 133.394531 40.507812 C 134.679688 40.921875 135.988281 41.261719 137.3125 41.535156 C 138.417969 41.773438 139.507812 42.070312 140.582031 42.429688 C 141.628906 42.78125 142.523438 43.203125 143.261719 43.691406 C 143.933594 44.132812 144.457031 44.660156 144.832031 45.285156 C 145.210938 45.90625 145.402344 46.632812 145.402344 47.457031 C 145.402344 48.125 145.257812 48.726562 144.976562 49.273438 C 144.675781 49.835938 144.277344 50.320312 143.777344 50.71875 C 142.988281 51.335938 142.050781 51.792969 140.96875 52.101562 C 139.886719 52.410156 138.738281 52.5625 137.515625 52.5625 C 136.589844 52.5625 135.640625 52.46875 134.671875 52.285156 C 133.726562 52.113281 132.839844 51.792969 132.003906 51.324219 C 131.191406 50.867188 130.511719 50.269531 129.957031 49.523438 C 129.398438 48.777344 129.066406 47.84375 128.964844 46.71875 L 125.871094 46.71875 C 125.921875 48.019531 126.253906 49.191406 126.863281 50.246094 C 127.472656 51.300781 128.3125 52.195312 129.375 52.929688 C 130.40625 53.648438 131.625 54.214844 133.035156 54.628906 C 134.445312 55.039062 135.9375 55.246094 137.515625 55.246094 Z M 162.53125 20.738281 C 162.566406 20.109375 162.742188 19.550781 163.058594 19.070312 C 163.378906 18.585938 163.785156 18.273438 164.285156 18.132812 C 164.628906 17.976562 164.984375 17.882812 165.351562 17.859375 C 165.722656 17.832031 166.121094 17.863281 166.550781 17.949219 C 167.035156 18.050781 167.484375 18.230469 167.90625 18.488281 C 168.367188 18.78125 168.835938 19.066406 169.308594 19.34375 C 169.773438 19.660156 170.257812 19.9375 170.765625 20.175781 C 171.269531 20.410156 171.859375 20.53125 172.527344 20.53125 C 173.25 20.53125 173.90625 20.382812 174.5 20.09375 C 175.089844 19.808594 175.59375 19.410156 176.007812 18.898438 C 176.453125 18.398438 176.78125 17.832031 177 17.199219 C 177.234375 16.53125 177.355469 15.84375 177.371094 15.132812 L 175.363281 14.738281 C 175.332031 15.164062 175.246094 15.574219 175.105469 15.976562 C 174.980469 16.339844 174.800781 16.671875 174.5625 16.976562 C 174.324219 17.273438 174.03125 17.511719 173.6875 17.6875 C 173.324219 17.867188 172.9375 17.957031 172.527344 17.949219 C 171.839844 17.949219 171.21875 17.800781 170.660156 17.503906 C 170.097656 17.199219 169.550781 16.867188 169.023438 16.503906 C 168.472656 16.148438 167.90625 15.820312 167.324219 15.515625 C 166.742188 15.207031 166.085938 15.054688 165.367188 15.054688 C 164.628906 15.054688 163.964844 15.199219 163.382812 15.488281 C 162.800781 15.773438 162.304688 16.164062 161.886719 16.660156 C 161.449219 17.167969 161.113281 17.738281 160.882812 18.371094 C 160.640625 19.035156 160.511719 19.71875 160.496094 20.425781 L 162.53125 20.742188 Z M 166.269531 55.246094 C 167.300781 55.246094 168.289062 55.136719 169.242188 54.917969 C 170.1875 54.703125 171.09375 54.382812 171.960938 53.957031 C 172.800781 53.554688 173.578125 53.0625 174.292969 52.46875 C 174.996094 51.894531 175.617188 51.238281 176.160156 50.507812 C 176.195312 51.246094 176.257812 51.976562 176.355469 52.695312 C 176.449219 53.414062 176.589844 54.089844 176.777344 54.71875 L 180.074219 54.71875 L 180.074219 54.378906 C 179.824219 53.472656 179.625 52.554688 179.472656 51.628906 C 179.308594 50.671875 179.21875 49.714844 179.199219 48.746094 L 179.199219 34.980469 C 179.183594 33.4375 178.902344 32.085938 178.351562 30.925781 C 177.816406 29.78125 177.058594 28.808594 176.082031 28.003906 C 175.121094 27.25 173.996094 26.679688 172.707031 26.292969 C 171.421875 25.90625 170.039062 25.714844 168.5625 25.714844 C 167.082031 25.714844 165.699219 25.925781 164.398438 26.347656 C 163.101562 26.769531 161.964844 27.347656 160.988281 28.085938 C 160.007812 28.839844 159.226562 29.722656 158.640625 30.742188 C 158.058594 31.761719 157.742188 32.875 157.6875 34.085938 L 160.78125 34.109375 C 160.816406 33.214844 161.046875 32.414062 161.476562 31.703125 C 161.914062 30.980469 162.480469 30.378906 163.175781 29.898438 C 163.863281 29.410156 164.660156 29.03125 165.574219 28.769531 C 166.507812 28.5 167.460938 28.371094 168.429688 28.375 C 169.515625 28.375 170.523438 28.519531 171.460938 28.808594 C 172.394531 29.097656 173.207031 29.515625 173.894531 30.058594 C 174.59375 30.613281 175.132812 31.292969 175.515625 32.097656 C 175.910156 32.914062 176.117188 33.855469 176.136719 34.925781 L 176.136719 38.140625 L 170.082031 38.140625 C 168.40625 38.132812 166.75 38.292969 165.109375 38.625 C 163.527344 38.949219 162.144531 39.472656 160.960938 40.191406 C 159.757812 40.910156 158.800781 41.84375 158.089844 42.996094 C 157.375 44.144531 157.019531 45.535156 157.019531 47.167969 C 157.019531 48.378906 157.261719 49.484375 157.742188 50.484375 C 158.207031 51.46875 158.859375 52.3125 159.699219 53.011719 C 160.523438 53.710938 161.5 54.261719 162.636719 54.65625 C 163.769531 55.050781 164.980469 55.246094 166.269531 55.246094 Z M 166.628906 52.429688 C 165.71875 52.429688 164.867188 52.296875 164.078125 52.035156 C 163.289062 51.773438 162.601562 51.402344 162.015625 50.929688 C 161.414062 50.457031 160.945312 49.871094 160.613281 49.179688 C 160.277344 48.488281 160.109375 47.71875 160.109375 46.875 C 160.09375 45.804688 160.316406 44.902344 160.78125 44.167969 C 161.242188 43.429688 161.871094 42.804688 162.660156 42.296875 C 163.625 41.664062 164.792969 41.226562 166.164062 40.980469 C 167.605469 40.730469 169.058594 40.597656 170.519531 40.585938 L 176.136719 40.585938 L 176.136719 46.824219 C 175.738281 47.671875 175.222656 48.4375 174.589844 49.128906 C 173.945312 49.828125 173.21875 50.417969 172.398438 50.902344 C 171.550781 51.40625 170.648438 51.785156 169.695312 52.035156 C 168.714844 52.300781 167.695312 52.429688 166.628906 52.429688 Z M 200.171875 55.246094 C 202.113281 55.246094 203.851562 54.859375 205.386719 54.089844 C 206.914062 53.332031 208.214844 52.296875 209.292969 50.984375 C 210.339844 49.667969 211.148438 48.144531 211.710938 46.417969 C 212.28125 44.6875 212.5625 42.851562 212.5625 40.902344 L 212.5625 40.058594 C 212.5625 38.113281 212.28125 36.269531 211.710938 34.53125 C 211.148438 32.796875 210.332031 31.277344 209.265625 29.980469 C 208.195312 28.652344 206.894531 27.613281 205.363281 26.859375 C 203.824219 26.097656 202.078125 25.714844 200.121094 25.714844 C 198.160156 25.714844 196.417969 26.101562 194.890625 26.871094 C 193.371094 27.632812 192.074219 28.667969 191 29.980469 C 189.933594 31.296875 189.117188 32.820312 188.554688 34.558594 C 187.984375 36.296875 187.703125 38.128906 187.703125 40.058594 L 187.703125 40.902344 C 187.703125 42.851562 187.984375 44.691406 188.554688 46.429688 C 189.117188 48.167969 189.945312 49.683594 191.027344 50.984375 C 192.085938 52.316406 193.382812 53.355469 194.914062 54.101562 C 196.460938 54.867188 198.210938 55.246094 200.171875 55.246094 Z M 200.171875 52.5625 C 198.644531 52.5625 197.292969 52.238281 196.128906 51.589844 C 194.960938 50.945312 193.992188 50.085938 193.214844 49.007812 C 192.410156 47.921875 191.804688 46.675781 191.398438 45.269531 C 190.992188 43.84375 190.78125 42.386719 190.769531 40.902344 L 190.769531 40.058594 C 190.78125 38.582031 190.992188 37.136719 191.398438 35.71875 C 191.804688 34.3125 192.410156 33.074219 193.214844 32.007812 C 193.984375 30.917969 194.949219 30.050781 196.113281 29.398438 C 197.273438 28.75 198.609375 28.425781 200.121094 28.425781 C 201.632812 28.425781 202.96875 28.75 204.125 29.398438 C 205.296875 30.054688 206.28125 30.925781 207.074219 32.003906 C 207.847656 33.074219 208.441406 34.3125 208.851562 35.71875 C 209.265625 37.121094 209.480469 38.566406 209.496094 40.058594 L 209.496094 40.902344 C 209.484375 42.386719 209.273438 43.84375 208.867188 45.269531 C 208.460938 46.675781 207.875 47.914062 207.101562 48.984375 C 206.308594 50.0625 205.332031 50.929688 204.164062 51.589844 C 203.015625 52.238281 201.683594 52.5625 200.171875 52.5625 Z M 200.171875 52.5625 "/>
<path style=" stroke:none;fill-rule:nonzero;fill:rgb(100%,100%,100%);fill-opacity:1;" d="M 11.304688 20.765625 C 12.132812 20.765625 12.726562 20.539062 13.097656 20.082031 C 13.464844 19.625 13.652344 19.082031 13.652344 18.449219 C 13.652344 18.097656 13.605469 17.773438 13.511719 17.476562 C 13.417969 17.179688 13.265625 16.917969 13.058594 16.6875 C 12.851562 16.480469 12.609375 16.324219 12.339844 16.214844 C 12.046875 16.089844 11.703125 16.027344 11.304688 16.027344 C 10.910156 16.027344 10.566406 16.089844 10.277344 16.214844 C 9.984375 16.335938 9.746094 16.492188 9.554688 16.6875 C 9.34375 16.917969 9.199219 17.1875 9.117188 17.488281 C 9.03125 17.804688 8.988281 18.125 8.988281 18.449219 C 8.988281 19.082031 9.167969 19.625 9.527344 20.082031 C 9.890625 20.539062 10.484375 20.765625 11.308594 20.765625 Z M 22.460938 54.71875 L 22.460938 51.90625 L 12.957031 51.90625 L 12.957031 26.242188 L 0.0234375 26.242188 L 0.0234375 29.058594 L 9.890625 29.058594 L 9.890625 51.902344 L 0.0234375 51.902344 L 0.0234375 54.71875 Z M 31.195312 54.71875 L 31.222656 33.003906 C 31.359375 32.480469 31.53125 31.953125 31.738281 31.425781 C 31.9375 30.90625 32.222656 30.429688 32.585938 30.003906 C 32.964844 29.550781 33.449219 29.183594 34.042969 28.914062 C 34.636719 28.640625 35.378906 28.496094 36.269531 28.480469 C 37.078125 28.460938 37.742188 28.585938 38.269531 28.847656 C 38.789062 29.109375 39.207031 29.460938 39.515625 29.898438 C 39.828125 30.355469 40.039062 30.878906 40.160156 31.464844 C 40.28125 32.054688 40.339844 32.644531 40.339844 33.242188 L 40.367188 54.71875 L 43.277344 54.71875 L 43.304688 33.269531 L 43.300781 33.144531 L 43.292969 33.03125 C 43.28125 32.953125 43.277344 32.875 43.277344 32.796875 C 43.398438 32.269531 43.570312 31.75 43.792969 31.242188 C 44.015625 30.734375 44.316406 30.277344 44.695312 29.875 C 45.089844 29.46875 45.578125 29.140625 46.164062 28.886719 C 46.746094 28.632812 47.46875 28.496094 48.328125 28.480469 C 49.167969 28.460938 49.855469 28.597656 50.386719 28.886719 C 50.921875 29.175781 51.339844 29.558594 51.652344 30.03125 C 51.96875 30.542969 52.179688 31.097656 52.28125 31.691406 C 52.394531 32.304688 52.449219 32.917969 52.449219 33.53125 L 52.476562 54.71875 L 55.386719 54.71875 L 55.410156 33.558594 C 55.410156 32.472656 55.300781 31.449219 55.078125 30.492188 C 54.855469 29.535156 54.484375 28.699219 53.96875 27.980469 C 53.503906 27.292969 52.863281 26.746094 52.039062 26.332031 C 51.214844 25.921875 50.21875 25.714844 49.050781 25.714844 C 48.242188 25.714844 47.507812 25.820312 46.847656 26.03125 C 46.183594 26.242188 45.589844 26.523438 45.054688 26.875 C 44.566406 27.199219 44.128906 27.585938 43.742188 28.03125 C 43.371094 28.460938 43.050781 28.925781 42.789062 29.425781 C 42.621094 28.925781 42.398438 28.453125 42.117188 28.003906 C 41.839844 27.5625 41.496094 27.175781 41.089844 26.847656 C 40.625 26.496094 40.074219 26.21875 39.4375 26.019531 C 38.804688 25.816406 38.074219 25.714844 37.25 25.714844 C 35.722656 25.730469 34.460938 26.078125 33.476562 26.753906 C 32.488281 27.429688 31.71875 28.328125 31.167969 29.453125 L 31.066406 26.242188 L 28.308594 26.242188 L 28.308594 54.71875 Z M 74.527344 55.246094 C 76.847656 55.246094 78.882812 54.78125 80.632812 53.851562 C 82.386719 52.921875 83.792969 51.703125 84.859375 50.195312 L 82.902344 48.667969 C 81.90625 49.929688 80.710938 50.894531 79.320312 51.5625 C 77.929688 52.230469 76.375 52.5625 74.65625 52.5625 C 73.164062 52.546875 71.804688 52.238281 70.585938 51.640625 C 69.363281 51.046875 68.316406 50.230469 67.445312 49.191406 C 66.585938 48.210938 65.910156 47.070312 65.421875 45.769531 C 64.933594 44.472656 64.652344 43.070312 64.582031 41.558594 L 64.582031 40.691406 L 85.449219 40.691406 L 85.449219 38.769531 C 85.449219 36.964844 85.199219 35.265625 84.691406 33.675781 C 84.183594 32.089844 83.449219 30.699219 82.488281 29.507812 C 81.511719 28.332031 80.304688 27.40625 78.867188 26.730469 C 77.433594 26.054688 75.796875 25.714844 73.960938 25.714844 C 72.210938 25.714844 70.582031 26.085938 69.078125 26.820312 C 67.558594 27.566406 66.246094 28.585938 65.148438 29.875 C 64.015625 31.171875 63.128906 32.699219 62.484375 34.453125 C 61.839844 36.210938 61.519531 38.105469 61.519531 40.140625 L 61.519531 41.269531 C 61.519531 43.183594 61.835938 44.988281 62.472656 46.679688 C 63.105469 48.375 64 49.859375 65.148438 51.140625 C 66.285156 52.40625 67.648438 53.40625 69.246094 54.140625 C 70.84375 54.878906 72.605469 55.246094 74.527344 55.246094 Z M 82.386719 37.980469 L 64.738281 37.980469 C 64.910156 36.613281 65.253906 35.34375 65.769531 34.175781 C 66.285156 33.011719 66.945312 31.996094 67.753906 31.136719 C 68.539062 30.292969 69.457031 29.632812 70.507812 29.148438 C 71.558594 28.667969 72.707031 28.425781 73.960938 28.425781 C 75.285156 28.425781 76.460938 28.683594 77.492188 29.203125 C 78.511719 29.710938 79.386719 30.398438 80.117188 31.269531 C 80.824219 32.128906 81.375 33.128906 81.78125 34.269531 C 82.183594 35.410156 82.386719 36.550781 82.386719 37.691406 Z M 101.785156 54.71875 L 101.734375 36.480469 C 102.078125 35.183594 102.570312 34.054688 103.214844 33.097656 C 103.859375 32.140625 104.617188 31.347656 105.492188 30.714844 C 106.433594 30.050781 107.460938 29.574219 108.574219 29.28125 C 109.714844 28.972656 110.9375 28.820312 112.246094 28.820312 C 113 28.820312 113.738281 28.863281 114.460938 28.953125 C 115.179688 29.039062 115.894531 29.164062 116.597656 29.320312 L 117.011719 26.265625 C 116.476562 26.09375 115.820312 25.957031 115.039062 25.859375 C 114.273438 25.765625 113.503906 25.714844 112.734375 25.714844 C 110.207031 25.695312 108.015625 26.230469 106.152344 27.320312 C 104.289062 28.410156 102.816406 29.925781 101.734375 31.875 L 101.707031 30.609375 L 101.527344 26.242188 L 98.589844 26.242188 L 98.589844 54.71875 Z M 137.515625 55.246094 C 138.976562 55.25 140.410156 55.0625 141.820312 54.695312 C 143.226562 54.324219 144.464844 53.753906 145.527344 52.984375 C 146.410156 52.332031 147.125 51.527344 147.667969 50.574219 C 148.21875 49.621094 148.492188 48.527344 148.492188 47.296875 C 148.492188 46 148.203125 44.890625 147.628906 43.96875 C 147.054688 43.046875 146.285156 42.261719 145.324219 41.613281 C 144.34375 40.964844 143.210938 40.429688 141.921875 40.007812 C 140.59375 39.574219 139.242188 39.207031 137.878906 38.902344 C 136.816406 38.683594 135.765625 38.425781 134.722656 38.125 C 133.71875 37.835938 132.855469 37.472656 132.132812 37.03125 C 131.410156 36.628906 130.863281 36.125 130.484375 35.519531 C 130.105469 34.914062 129.917969 34.199219 129.917969 33.375 C 129.917969 32.550781 130.132812 31.824219 130.5625 31.203125 C 131.003906 30.566406 131.5625 30.050781 132.234375 29.664062 C 132.921875 29.242188 133.707031 28.929688 134.59375 28.726562 C 135.496094 28.523438 136.410156 28.421875 137.335938 28.425781 C 138.332031 28.425781 139.300781 28.558594 140.234375 28.820312 C 141.171875 29.085938 142.007812 29.460938 142.746094 29.953125 C 143.460938 30.433594 144.050781 31.039062 144.511719 31.769531 C 144.964844 32.488281 145.203125 33.304688 145.21875 34.214844 L 148.335938 34.214844 C 148.285156 32.867188 147.964844 31.664062 147.371094 30.609375 C 146.777344 29.550781 145.988281 28.65625 145.011719 27.925781 C 144.035156 27.207031 142.890625 26.660156 141.574219 26.28125 C 140.261719 25.902344 138.847656 25.714844 137.335938 25.714844 C 135.996094 25.714844 134.695312 25.890625 133.433594 26.242188 C 132.171875 26.59375 131.070312 27.085938 130.125 27.714844 C 129.128906 28.398438 128.332031 29.222656 127.738281 30.1875 C 127.148438 31.15625 126.851562 32.25 126.851562 33.480469 C 126.851562 34.777344 127.148438 35.878906 127.738281 36.78125 C 128.34375 37.703125 129.121094 38.445312 130.070312 39.007812 C 131.121094 39.632812 132.230469 40.132812 133.394531 40.507812 C 134.679688 40.921875 135.988281 41.261719 137.3125 41.535156 C 138.417969 41.773438 139.507812 42.070312 140.582031 42.429688 C 141.628906 42.78125 142.523438 43.203125 143.261719 43.691406 C 143.933594 44.132812 144.457031 44.660156 144.832031 45.285156 C 145.210938 45.90625 145.402344 46.632812 145.402344 47.457031 C 145.402344 48.125 145.257812 48.726562 144.976562 49.273438 C 144.675781 49.835938 144.277344 50.320312 143.777344 50.71875 C 142.988281 51.335938 142.050781 51.792969 140.96875 52.101562 C 139.886719 52.410156 138.738281 52.5625 137.515625 52.5625 C 136.589844 52.5625 135.640625 52.46875 134.671875 52.285156 C 133.726562 52.113281 132.839844 51.792969 132.003906 51.324219 C 131.191406 50.867188 130.511719 50.269531 129.957031 49.523438 C 129.398438 48.777344 129.066406 47.84375 128.964844 46.71875 L 125.871094 46.71875 C 125.921875 48.019531 126.253906 49.191406 126.863281 50.246094 C 127.472656 51.300781 128.3125 52.195312 129.375 52.929688 C 130.40625 53.648438 131.625 54.214844 133.035156 54.628906 C 134.445312 55.039062 135.9375 55.246094 137.515625 55.246094 Z M 162.53125 20.738281 C 162.566406 20.109375 162.742188 19.550781 163.058594 19.070312 C 163.378906 18.585938 163.785156 18.273438 164.285156 18.132812 C 164.628906 17.976562 164.984375 17.882812 165.351562 17.859375 C 165.722656 17.832031 166.121094 17.863281 166.550781 17.949219 C 167.035156 18.050781 167.484375 18.230469 167.90625 18.488281 C 168.367188 18.78125 168.835938 19.066406 169.308594 19.34375 C 169.773438 19.660156 170.257812 19.9375 170.765625 20.175781 C 171.269531 20.410156 171.859375 20.53125 172.527344 20.53125 C 173.25 20.53125 173.90625 20.382812 174.5 20.09375 C 175.089844 19.808594 175.59375 19.410156 176.007812 18.898438 C 176.453125 18.398438 176.78125 17.832031 177 17.199219 C 177.234375 16.53125 177.355469 15.84375 177.371094 15.132812 L 175.363281 14.738281 C 175.332031 15.164062 175.246094 15.574219 175.105469 15.976562 C 174.980469 16.339844 174.800781 16.671875 174.5625 16.976562 C 174.324219 17.273438 174.03125 17.511719 173.6875 17.6875 C 173.324219 17.867188 172.9375 17.957031 172.527344 17.949219 C 171.839844 17.949219 171.21875 17.800781 170.660156 17.503906 C 170.097656 17.199219 169.550781 16.867188 169.023438 16.503906 C 168.472656 16.148438 167.90625 15.820312 167.324219 15.515625 C 166.742188 15.207031 166.085938 15.054688 165.367188 15.054688 C 164.628906 15.054688 163.964844 15.199219 163.382812 15.488281 C 162.800781 15.773438 162.304688 16.164062 161.886719 16.660156 C 161.449219 17.167969 161.113281 17.738281 160.882812 18.371094 C 160.640625 19.035156 160.511719 19.71875 160.496094 20.425781 L 162.53125 20.742188 Z M 166.269531 55.246094 C 167.300781 55.246094 168.289062 55.136719 169.242188 54.917969 C 170.1875 54.703125 171.09375 54.382812 171.960938 53.957031 C 172.800781 53.554688 173.578125 53.0625 174.292969 52.46875 C 174.996094 51.894531 175.617188 51.238281 176.160156 50.507812 C 176.195312 51.246094 176.257812 51.976562 176.355469 52.695312 C 176.449219 53.414062 176.589844 54.089844 176.777344 54.71875 L 180.074219 54.71875 L 180.074219 54.378906 C 179.824219 53.472656 179.625 52.554688 179.472656 51.628906 C 179.308594 50.671875 179.21875 49.714844 179.199219 48.746094 L 179.199219 34.980469 C 179.183594 33.4375 178.902344 32.085938 178.351562 30.925781 C 177.816406 29.78125 177.058594 28.808594 176.082031 28.003906 C 175.121094 27.25 173.996094 26.679688 172.707031 26.292969 C 171.421875 25.90625 170.039062 25.714844 168.5625 25.714844 C 167.082031 25.714844 165.699219 25.925781 164.398438 26.347656 C 163.101562 26.769531 161.964844 27.347656 160.988281 28.085938 C 160.007812 28.839844 159.226562 29.722656 158.640625 30.742188 C 158.058594 31.761719 157.742188 32.875 157.6875 34.085938 L 160.78125 34.109375 C 160.816406 33.214844 161.046875 32.414062 161.476562 31.703125 C 161.914062 30.980469 162.480469 30.378906 163.175781 29.898438 C 163.863281 29.410156 164.660156 29.03125 165.574219 28.769531 C 166.507812 28.5 167.460938 28.371094 168.429688 28.375 C 169.515625 28.375 170.523438 28.519531 171.460938 28.808594 C 172.394531 29.097656 173.207031 29.515625 173.894531 30.058594 C 174.59375 30.613281 175.132812 31.292969 175.515625 32.097656 C 175.910156 32.914062 176.117188 33.855469 176.136719 34.925781 L 176.136719 38.140625 L 170.082031 38.140625 C 168.40625 38.132812 166.75 38.292969 165.109375 38.625 C 163.527344 38.949219 162.144531 39.472656 160.960938 40.191406 C 159.757812 40.910156 158.800781 41.84375 158.089844 42.996094 C 157.375 44.144531 157.019531 45.535156 157.019531 47.167969 C 157.019531 48.378906 157.261719 49.484375 157.742188 50.484375 C 158.207031 51.46875 158.859375 52.3125 159.699219 53.011719 C 160.523438 53.710938 161.5 54.261719 162.636719 54.65625 C 163.769531 55.050781 164.980469 55.246094 166.269531 55.246094 Z M 166.628906 52.429688 C 165.71875 52.429688 164.867188 52.296875 164.078125 52.035156 C 163.289062 51.773438 162.601562 51.402344 162.015625 50.929688 C 161.414062 50.457031 160.945312 49.871094 160.613281 49.179688 C 160.277344 48.488281 160.109375 47.71875 160.109375 46.875 C 160.09375 45.804688 160.316406 44.902344 160.78125 44.167969 C 161.242188 43.429688 161.871094 42.804688 162.660156 42.296875 C 163.625 41.664062 164.792969 41.226562 166.164062 40.980469 C 167.605469 40.730469 169.058594 40.597656 170.519531 40.585938 L 176.136719 40.585938 L 176.136719 46.824219 C 175.738281 47.671875 175.222656 48.4375 174.589844 49.128906 C 173.945312 49.828125 173.21875 50.417969 172.398438 50.902344 C 171.550781 51.40625 170.648438 51.785156 169.695312 52.035156 C 168.714844 52.300781 167.695312 52.429688 166.628906 52.429688 Z M 200.171875 55.246094 C 202.113281 55.246094 203.851562 54.859375 205.386719 54.089844 C 206.914062 53.332031 208.214844 52.296875 209.292969 50.984375 C 210.339844 49.667969 211.148438 48.144531 211.710938 46.417969 C 212.28125 44.6875 212.5625 42.851562 212.5625 40.902344 L 212.5625 40.058594 C 212.5625 38.113281 212.28125 36.269531 211.710938 34.53125 C 211.148438 32.796875 210.332031 31.277344 209.265625 29.980469 C 208.195312 28.652344 206.894531 27.613281 205.363281 26.859375 C 203.824219 26.097656 202.078125 25.714844 200.121094 25.714844 C 198.160156 25.714844 196.417969 26.101562 194.890625 26.871094 C 193.371094 27.632812 192.074219 28.667969 191 29.980469 C 189.933594 31.296875 189.117188 32.820312 188.554688 34.558594 C 187.984375 36.296875 187.703125 38.128906 187.703125 40.058594 L 187.703125 40.902344 C 187.703125 42.851562 187.984375 44.691406 188.554688 46.429688 C 189.117188 48.167969 189.945312 49.683594 191.027344 50.984375 C 192.085938 52.316406 193.382812 53.355469 194.914062 54.101562 C 196.460938 54.867188 198.210938 55.246094 200.171875 55.246094 Z M 200.171875 52.5625 C 198.644531 52.5625 197.292969 52.238281 196.128906 51.589844 C 194.960938 50.945312 193.992188 50.085938 193.214844 49.007812 C 192.410156 47.921875 191.804688 46.675781 191.398438 45.269531 C 190.992188 43.84375 190.78125 42.386719 190.769531 40.902344 L 190.769531 40.058594 C 190.78125 38.582031 190.992188 37.136719 191.398438 35.71875 C 191.804688 34.3125 192.410156 33.074219 193.214844 32.007812 C 193.984375 30.917969 194.949219 30.050781 196.113281 29.398438 C 197.273438 28.75 198.609375 28.425781 200.121094 28.425781 C 201.632812 28.425781 202.96875 28.75 204.125 29.398438 C 205.296875 30.054688 206.28125 30.925781 207.074219 32.003906 C 207.847656 33.074219 208.441406 34.3125 208.851562 35.71875 C 209.265625 37.121094 209.480469 38.566406 209.496094 40.058594 L 209.496094 40.902344 C 209.484375 42.386719 209.273438 43.84375 208.867188 45.269531 C 208.460938 46.675781 207.875 47.914062 207.101562 48.984375 C 206.308594 50.0625 205.332031 50.929688 204.164062 51.589844 C 203.015625 52.238281 201.683594 52.5625 200.171875 52.5625 Z M 200.171875 52.5625 "/>
<g clip-path="url(#clip3)" clip-rule="nonzero">
<use xlink:href="#surface6" comp-op="screen" transform="matrix(1,0,0,1,224,0.000000000000008035)"/>
</g>
<path style=" stroke:none;fill-rule:nonzero;fill:rgb(100%,100%,100%);fill-opacity:1;" d="M 250.257812 55.191406 C 251.816406 55.191406 253.1875 54.894531 254.371094 54.304688 C 255.550781 53.710938 256.582031 52.882812 257.457031 51.816406 L 257.816406 54.683594 L 264.269531 54.683594 L 264.269531 15.726562 L 257.09375 15.726562 L 257.09375 29.703125 C 256.238281 28.753906 255.257812 28.023438 254.152344 27.507812 C 253.046875 26.992188 251.765625 26.734375 250.308594 26.734375 C 248.574219 26.734375 247.035156 27.074219 245.691406 27.75 C 244.347656 28.425781 243.203125 29.378906 242.257812 30.613281 C 241.316406 31.847656 240.601562 33.328125 240.113281 35.050781 C 239.625 36.777344 239.378906 38.679688 239.378906 40.761719 L 239.378906 41.292969 C 239.378906 43.285156 239.628906 45.136719 240.125 46.832031 C 240.621094 48.535156 241.339844 50 242.285156 51.234375 C 243.195312 52.464844 244.332031 53.429688 245.691406 54.136719 C 247.035156 54.839844 248.558594 55.191406 250.257812 55.191406 Z M 252.082031 49.460938 C 251.070312 49.460938 250.210938 49.246094 249.511719 48.824219 C 248.808594 48.402344 248.234375 47.820312 247.789062 47.074219 C 247.339844 46.347656 247.019531 45.488281 246.824219 44.5 C 246.625 43.511719 246.527344 42.441406 246.527344 41.292969 L 246.527344 40.761719 C 246.527344 39.609375 246.628906 38.53125 246.835938 37.527344 C 247.042969 36.519531 247.367188 35.636719 247.8125 34.875 C 248.242188 34.144531 248.820312 33.554688 249.546875 33.113281 C 250.261719 32.679688 251.121094 32.464844 252.132812 32.464844 C 253.347656 32.464844 254.363281 32.722656 255.167969 33.238281 C 255.972656 33.753906 256.617188 34.480469 257.09375 35.410156 L 257.09375 46.515625 C 256.617188 47.429688 255.96875 48.148438 255.152344 48.671875 C 254.339844 49.195312 253.316406 49.457031 252.082031 49.457031 Z M 285.226562 55.191406 C 287.917969 55.191406 290.25 54.675781 292.21875 53.644531 C 294.191406 52.613281 295.628906 51.460938 296.539062 50.195312 L 292.964844 46.390625 C 292.144531 47.4375 291.070312 48.222656 289.75 48.75 C 288.441406 49.273438 287.078125 49.535156 285.664062 49.535156 C 284.667969 49.535156 283.75 49.382812 282.910156 49.078125 C 282.085938 48.785156 281.339844 48.351562 280.675781 47.785156 C 280.0625 47.269531 279.554688 46.664062 279.15625 45.972656 C 278.78125 45.304688 278.472656 44.417969 278.230469 43.320312 L 278.230469 43.246094 L 297.105469 43.246094 L 297.105469 40.253906 C 297.105469 38.242188 296.824219 36.402344 296.257812 34.738281 C 295.691406 33.070312 294.867188 31.648438 293.789062 30.464844 C 292.691406 29.28125 291.359375 28.363281 289.789062 27.710938 C 288.222656 27.0625 286.433594 26.734375 284.429688 26.734375 C 282.492188 26.734375 280.699219 27.082031 279.054688 27.773438 C 277.410156 28.46875 275.988281 29.441406 274.785156 30.691406 C 273.585938 31.941406 272.652344 33.433594 271.984375 35.167969 C 271.316406 36.902344 270.980469 38.816406 270.980469 40.914062 L 270.980469 41.925781 C 270.980469 43.769531 271.320312 45.5 271.996094 47.113281 C 272.660156 48.71875 273.625 50.117188 274.890625 51.3125 C 276.140625 52.511719 277.640625 53.457031 279.386719 54.152344 C 281.136719 54.84375 283.082031 55.191406 285.226562 55.191406 Z M 290.085938 38.375 L 278.359375 38.375 C 278.53125 37.480469 278.789062 36.667969 279.132812 35.941406 C 279.453125 35.242188 279.882812 34.617188 280.417969 34.0625 C 280.914062 33.539062 281.496094 33.136719 282.164062 32.859375 C 282.835938 32.578125 283.570312 32.441406 284.375 32.441406 C 285.285156 32.441406 286.085938 32.578125 286.78125 32.859375 C 287.476562 33.136719 288.0625 33.515625 288.542969 33.988281 C 289.03125 34.488281 289.410156 35.066406 289.675781 35.710938 C 289.949219 36.371094 290.085938 37.074219 290.085938 37.816406 Z M 318.882812 54.683594 L 329.453125 27.242188 L 321.996094 27.242188 L 315.902344 46.59375 L 315.515625 48.519531 L 315.128906 46.59375 L 309.011719 27.242188 L 301.554688 27.242188 L 312.171875 54.683594 L 318.886719 54.683594 Z M 358.558594 60.1875 L 358.558594 54.683594 L 335.109375 54.683594 L 335.109375 60.1875 Z M 358.558594 60.1875 "/>
</g>
</defs>
<g id="surface1">
<g clip-path="url(#clip1)" clip-rule="nonzero">
<use xlink:href="#surface8" transform="matrix(1,0,0,1,0,0.000000000000008035)"/>
</g>
</g>
</svg>
